<svg width="46" height="49" viewBox="0 0 46 49" fill="none" xmlns="http://www.w3.org/2000/svg">
<g filter="url(#filter0_d_78_24)">
<mask id="path-1-outside-1_78_24" maskUnits="userSpaceOnUse" x="0" y="0" width="44" height="47" fill="black">
<rect fill="white" width="44" height="47"/>
<path d="M38.704 23.5L41.2269 26.7544C41.471 27.0763 41.6609 27.4263 41.7965 27.8042C41.9322 28.1821 42 28.5811 42 29.001C42 29.4209 41.939 29.8198 41.8169 30.1978C41.6948 30.5757 41.5185 30.9186 41.2879 31.2266C41.0573 31.5345 40.7793 31.8005 40.4537 32.0244C40.1282 32.2484 39.7755 32.4163 39.3957 32.5283L35.5097 33.6411C35.5368 34.355 35.5707 35.0758 35.6114 35.8037C35.6521 36.5316 35.6792 37.2594 35.6928 37.9873C35.6928 38.4912 35.6046 38.9601 35.4283 39.394C35.2519 39.828 35.001 40.2059 34.6755 40.5278C34.35 40.8498 33.9769 41.1087 33.5565 41.3047C33.136 41.5007 32.6748 41.5986 32.1729 41.5986C31.7525 41.5986 31.3388 41.5216 30.9318 41.3677L27.1679 39.8979L24.9502 43.3623C24.6246 43.8662 24.2041 44.2651 23.6887 44.5591C23.1733 44.853 22.6104 45 22 45C21.4032 45 20.8471 44.853 20.3316 44.5591C19.8162 44.2651 19.3889 43.8662 19.0498 43.3623L16.8321 39.8979L13.0682 41.3677C12.6612 41.5216 12.2475 41.5986 11.8271 41.5986C11.3388 41.5986 10.8844 41.5077 10.4639 41.3257C10.0434 41.1437 9.6704 40.8848 9.34486 40.5488C9.01933 40.2129 8.7684 39.828 8.59207 39.394C8.41573 38.9601 8.32079 38.4912 8.30722 37.9873C8.30722 37.2594 8.32757 36.5316 8.36826 35.8037C8.40895 35.0758 8.44964 34.355 8.49034 33.6411L4.60427 32.5283C4.21092 32.4163 3.85826 32.2484 3.54629 32.0244C3.23432 31.8005 2.96304 31.5345 2.73245 31.2266C2.50187 30.9186 2.32553 30.5757 2.20346 30.1978C2.08138 29.8198 2.01356 29.4209 2 29.001C2 28.5951 2.06782 28.2031 2.20346 27.8252C2.3391 27.4473 2.52899 27.0903 2.77314 26.7544L5.29603 23.5L2.77314 20.2456C2.25771 19.5877 2 18.8389 2 17.999C2 17.5791 2.06104 17.1802 2.18311 16.8022C2.30519 16.4243 2.48152 16.0814 2.71211 15.7734C2.94269 15.4655 3.21397 15.1995 3.52594 14.9756C3.83791 14.7516 4.19736 14.5837 4.60427 14.4717L8.49034 13.3589C8.46321 12.645 8.4293 11.9242 8.38861 11.1963C8.34791 10.4684 8.32079 9.74056 8.30722 9.0127C8.30722 8.50879 8.39539 8.03988 8.57172 7.60596C8.74805 7.17204 8.99898 6.79411 9.32452 6.47217C9.65005 6.15023 10.0231 5.89128 10.4435 5.69531C10.864 5.49935 11.3252 5.40137 11.8271 5.40137C12.2475 5.40137 12.6612 5.47835 13.0682 5.63232L16.8321 7.10205L19.0498 3.6377C19.3754 3.13379 19.7959 2.73486 20.3113 2.44092C20.8267 2.14697 21.3896 2 22 2C22.5968 2 23.1529 2.14697 23.6684 2.44092C24.1838 2.73486 24.6111 3.13379 24.9502 3.6377L27.1679 7.10205L30.9318 5.63232C31.3388 5.47835 31.7525 5.40137 32.1729 5.40137C32.6612 5.40137 33.1156 5.49235 33.5361 5.67432C33.9566 5.85628 34.3296 6.11523 34.6551 6.45117C34.9807 6.78711 35.2316 7.17204 35.4079 7.60596C35.5843 8.03988 35.6792 8.50879 35.6928 9.0127C35.6928 9.74056 35.6724 10.4684 35.6317 11.1963C35.591 11.9242 35.5504 12.645 35.5097 13.3589L39.3957 14.4717C39.7755 14.5837 40.1282 14.7516 40.4537 14.9756C40.7793 15.1995 41.0505 15.4655 41.2675 15.7734C41.4846 16.0814 41.6609 16.4243 41.7965 16.8022C41.9322 17.1802 42 17.5791 42 17.999C42 18.8389 41.7423 19.5877 41.2269 20.2456L38.704 23.5ZM39.3957 29.001C39.3957 28.805 39.3279 28.616 39.1923 28.4341L35.3672 23.5L39.1923 18.5659C39.3279 18.384 39.3957 18.195 39.3957 17.999C39.3957 17.5231 39.1651 17.2152 38.704 17.0752L34.8179 15.9624L32.824 15.3955C32.8647 14.3317 32.919 13.2679 32.9868 12.2041C33.0546 11.1403 33.0885 10.0765 33.0885 9.0127C33.0885 8.77474 32.9936 8.56478 32.8037 8.38281C32.6138 8.20085 32.4035 8.10286 32.1729 8.08887C32.0916 8.08887 31.9084 8.13086 31.6236 8.21484C31.3388 8.29883 31.0064 8.41781 30.6267 8.57178C30.2469 8.72575 29.8264 8.89372 29.3652 9.07568C28.904 9.25765 28.47 9.43262 28.0631 9.60059C27.6562 9.76855 27.2764 9.92253 26.9237 10.0625C26.571 10.2025 26.3065 10.3075 26.1302 10.3774L24.9908 8.59277L22.7731 5.10742C22.5968 4.82747 22.3391 4.6875 22 4.6875C21.6609 4.6875 21.4032 4.82747 21.2269 5.10742L19.0092 8.59277L17.8698 10.3774C17.6935 10.3075 17.4357 10.2025 17.0966 10.0625C16.7575 9.92253 16.371 9.76855 15.9369 9.60059C15.5029 9.43262 15.0688 9.25765 14.6348 9.07568C14.2007 8.89372 13.787 8.73275 13.3937 8.59277C13.0003 8.4528 12.6612 8.33382 12.3764 8.23584C12.0916 8.13786 11.9084 8.08887 11.8271 8.08887C11.5965 8.08887 11.3862 8.17985 11.1963 8.36182C11.0064 8.54378 10.9115 8.76074 10.9115 9.0127C10.9115 10.0765 10.9454 11.1403 11.0132 12.2041C11.081 13.2679 11.1353 14.3317 11.176 15.3955L9.1821 15.9624L5.29603 17.0752C4.83486 17.2152 4.60427 17.5231 4.60427 17.999C4.60427 18.195 4.67209 18.384 4.80773 18.5659L8.63276 23.5L4.80773 28.4341C4.67209 28.616 4.60427 28.805 4.60427 29.001C4.60427 29.4769 4.83486 29.7848 5.29603 29.9248L9.1821 31.0376L11.176 31.6045C11.1353 32.6683 11.081 33.7321 11.0132 34.7959C10.9454 35.8597 10.9115 36.9235 10.9115 37.9873C10.9115 38.2253 11.0064 38.4352 11.1963 38.6172C11.3862 38.7992 11.5965 38.8971 11.8271 38.9111C11.9084 38.9111 12.0916 38.8691 12.3764 38.7852C12.6612 38.7012 12.9936 38.5822 13.3733 38.4282C13.7531 38.2743 14.1736 38.1063 14.6348 37.9243C15.096 37.7424 15.53 37.5674 15.9369 37.3994C16.3438 37.2314 16.7236 37.0775 17.0763 36.9375C17.429 36.7975 17.6935 36.6925 17.8698 36.6226L19.0092 38.4072L21.2269 41.8926C21.4032 42.1725 21.6609 42.3125 22 42.3125C22.3391 42.3125 22.5968 42.1725 22.7731 41.8926L24.9908 38.4072L26.1302 36.6226C26.3065 36.6925 26.5643 36.7975 26.9034 36.9375C27.2425 37.0775 27.629 37.2314 28.0631 37.3994C28.4971 37.5674 28.9312 37.7424 29.3652 37.9243C29.7993 38.1063 30.213 38.2673 30.6063 38.4072C30.9997 38.5472 31.3388 38.6662 31.6236 38.7642C31.9084 38.8621 32.0916 38.9111 32.1729 38.9111C32.4035 38.9111 32.6138 38.8201 32.8037 38.6382C32.9936 38.4562 33.0885 38.2393 33.0885 37.9873C33.0885 36.9235 33.0546 35.8597 32.9868 34.7959C32.919 33.7321 32.8647 32.6683 32.824 31.6045L34.8179 31.0376L38.704 29.9248C39.1651 29.7848 39.3957 29.4769 39.3957 29.001ZM19.3957 26.9644L28.8973 17.1802L30.7284 19.0698L19.3957 30.7856L13.2716 24.4448L15.1027 22.5552L19.3957 26.9644Z"/>
</mask>
<path d="M38.704 23.5L41.2269 26.7544C41.471 27.0763 41.6609 27.4263 41.7965 27.8042C41.9322 28.1821 42 28.5811 42 29.001C42 29.4209 41.939 29.8198 41.8169 30.1978C41.6948 30.5757 41.5185 30.9186 41.2879 31.2266C41.0573 31.5345 40.7793 31.8005 40.4537 32.0244C40.1282 32.2484 39.7755 32.4163 39.3957 32.5283L35.5097 33.6411C35.5368 34.355 35.5707 35.0758 35.6114 35.8037C35.6521 36.5316 35.6792 37.2594 35.6928 37.9873C35.6928 38.4912 35.6046 38.9601 35.4283 39.394C35.2519 39.828 35.001 40.2059 34.6755 40.5278C34.35 40.8498 33.9769 41.1087 33.5565 41.3047C33.136 41.5007 32.6748 41.5986 32.1729 41.5986C31.7525 41.5986 31.3388 41.5216 30.9318 41.3677L27.1679 39.8979L24.9502 43.3623C24.6246 43.8662 24.2041 44.2651 23.6887 44.5591C23.1733 44.853 22.6104 45 22 45C21.4032 45 20.8471 44.853 20.3316 44.5591C19.8162 44.2651 19.3889 43.8662 19.0498 43.3623L16.8321 39.8979L13.0682 41.3677C12.6612 41.5216 12.2475 41.5986 11.8271 41.5986C11.3388 41.5986 10.8844 41.5077 10.4639 41.3257C10.0434 41.1437 9.6704 40.8848 9.34486 40.5488C9.01933 40.2129 8.7684 39.828 8.59207 39.394C8.41573 38.9601 8.32079 38.4912 8.30722 37.9873C8.30722 37.2594 8.32757 36.5316 8.36826 35.8037C8.40895 35.0758 8.44964 34.355 8.49034 33.6411L4.60427 32.5283C4.21092 32.4163 3.85826 32.2484 3.54629 32.0244C3.23432 31.8005 2.96304 31.5345 2.73245 31.2266C2.50187 30.9186 2.32553 30.5757 2.20346 30.1978C2.08138 29.8198 2.01356 29.4209 2 29.001C2 28.5951 2.06782 28.2031 2.20346 27.8252C2.3391 27.4473 2.52899 27.0903 2.77314 26.7544L5.29603 23.5L2.77314 20.2456C2.25771 19.5877 2 18.8389 2 17.999C2 17.5791 2.06104 17.1802 2.18311 16.8022C2.30519 16.4243 2.48152 16.0814 2.71211 15.7734C2.94269 15.4655 3.21397 15.1995 3.52594 14.9756C3.83791 14.7516 4.19736 14.5837 4.60427 14.4717L8.49034 13.3589C8.46321 12.645 8.4293 11.9242 8.38861 11.1963C8.34791 10.4684 8.32079 9.74056 8.30722 9.0127C8.30722 8.50879 8.39539 8.03988 8.57172 7.60596C8.74805 7.17204 8.99898 6.79411 9.32452 6.47217C9.65005 6.15023 10.0231 5.89128 10.4435 5.69531C10.864 5.49935 11.3252 5.40137 11.8271 5.40137C12.2475 5.40137 12.6612 5.47835 13.0682 5.63232L16.8321 7.10205L19.0498 3.6377C19.3754 3.13379 19.7959 2.73486 20.3113 2.44092C20.8267 2.14697 21.3896 2 22 2C22.5968 2 23.1529 2.14697 23.6684 2.44092C24.1838 2.73486 24.6111 3.13379 24.9502 3.6377L27.1679 7.10205L30.9318 5.63232C31.3388 5.47835 31.7525 5.40137 32.1729 5.40137C32.6612 5.40137 33.1156 5.49235 33.5361 5.67432C33.9566 5.85628 34.3296 6.11523 34.6551 6.45117C34.9807 6.78711 35.2316 7.17204 35.4079 7.60596C35.5843 8.03988 35.6792 8.50879 35.6928 9.0127C35.6928 9.74056 35.6724 10.4684 35.6317 11.1963C35.591 11.9242 35.5504 12.645 35.5097 13.3589L39.3957 14.4717C39.7755 14.5837 40.1282 14.7516 40.4537 14.9756C40.7793 15.1995 41.0505 15.4655 41.2675 15.7734C41.4846 16.0814 41.6609 16.4243 41.7965 16.8022C41.9322 17.1802 42 17.5791 42 17.999C42 18.8389 41.7423 19.5877 41.2269 20.2456L38.704 23.5ZM39.3957 29.001C39.3957 28.805 39.3279 28.616 39.1923 28.4341L35.3672 23.5L39.1923 18.5659C39.3279 18.384 39.3957 18.195 39.3957 17.999C39.3957 17.5231 39.1651 17.2152 38.704 17.0752L34.8179 15.9624L32.824 15.3955C32.8647 14.3317 32.919 13.2679 32.9868 12.2041C33.0546 11.1403 33.0885 10.0765 33.0885 9.0127C33.0885 8.77474 32.9936 8.56478 32.8037 8.38281C32.6138 8.20085 32.4035 8.10286 32.1729 8.08887C32.0916 8.08887 31.9084 8.13086 31.6236 8.21484C31.3388 8.29883 31.0064 8.41781 30.6267 8.57178C30.2469 8.72575 29.8264 8.89372 29.3652 9.07568C28.904 9.25765 28.47 9.43262 28.0631 9.60059C27.6562 9.76855 27.2764 9.92253 26.9237 10.0625C26.571 10.2025 26.3065 10.3075 26.1302 10.3774L24.9908 8.59277L22.7731 5.10742C22.5968 4.82747 22.3391 4.6875 22 4.6875C21.6609 4.6875 21.4032 4.82747 21.2269 5.10742L19.0092 8.59277L17.8698 10.3774C17.6935 10.3075 17.4357 10.2025 17.0966 10.0625C16.7575 9.92253 16.371 9.76855 15.9369 9.60059C15.5029 9.43262 15.0688 9.25765 14.6348 9.07568C14.2007 8.89372 13.787 8.73275 13.3937 8.59277C13.0003 8.4528 12.6612 8.33382 12.3764 8.23584C12.0916 8.13786 11.9084 8.08887 11.8271 8.08887C11.5965 8.08887 11.3862 8.17985 11.1963 8.36182C11.0064 8.54378 10.9115 8.76074 10.9115 9.0127C10.9115 10.0765 10.9454 11.1403 11.0132 12.2041C11.081 13.2679 11.1353 14.3317 11.176 15.3955L9.1821 15.9624L5.29603 17.0752C4.83486 17.2152 4.60427 17.5231 4.60427 17.999C4.60427 18.195 4.67209 18.384 4.80773 18.5659L8.63276 23.5L4.80773 28.4341C4.67209 28.616 4.60427 28.805 4.60427 29.001C4.60427 29.4769 4.83486 29.7848 5.29603 29.9248L9.1821 31.0376L11.176 31.6045C11.1353 32.6683 11.081 33.7321 11.0132 34.7959C10.9454 35.8597 10.9115 36.9235 10.9115 37.9873C10.9115 38.2253 11.0064 38.4352 11.1963 38.6172C11.3862 38.7992 11.5965 38.8971 11.8271 38.9111C11.9084 38.9111 12.0916 38.8691 12.3764 38.7852C12.6612 38.7012 12.9936 38.5822 13.3733 38.4282C13.7531 38.2743 14.1736 38.1063 14.6348 37.9243C15.096 37.7424 15.53 37.5674 15.9369 37.3994C16.3438 37.2314 16.7236 37.0775 17.0763 36.9375C17.429 36.7975 17.6935 36.6925 17.8698 36.6226L19.0092 38.4072L21.2269 41.8926C21.4032 42.1725 21.6609 42.3125 22 42.3125C22.3391 42.3125 22.5968 42.1725 22.7731 41.8926L24.9908 38.4072L26.1302 36.6226C26.3065 36.6925 26.5643 36.7975 26.9034 36.9375C27.2425 37.0775 27.629 37.2314 28.0631 37.3994C28.4971 37.5674 28.9312 37.7424 29.3652 37.9243C29.7993 38.1063 30.213 38.2673 30.6063 38.4072C30.9997 38.5472 31.3388 38.6662 31.6236 38.7642C31.9084 38.8621 32.0916 38.9111 32.1729 38.9111C32.4035 38.9111 32.6138 38.8201 32.8037 38.6382C32.9936 38.4562 33.0885 38.2393 33.0885 37.9873C33.0885 36.9235 33.0546 35.8597 32.9868 34.7959C32.919 33.7321 32.8647 32.6683 32.824 31.6045L34.8179 31.0376L38.704 29.9248C39.1651 29.7848 39.3957 29.4769 39.3957 29.001ZM19.3957 26.9644L28.8973 17.1802L30.7284 19.0698L19.3957 30.7856L13.2716 24.4448L15.1027 22.5552L19.3957 26.9644Z" fill="#EAEE2E"/>
<path d="M38.704 23.5L41.2269 26.7544C41.471 27.0763 41.6609 27.4263 41.7965 27.8042C41.9322 28.1821 42 28.5811 42 29.001C42 29.4209 41.939 29.8198 41.8169 30.1978C41.6948 30.5757 41.5185 30.9186 41.2879 31.2266C41.0573 31.5345 40.7793 31.8005 40.4537 32.0244C40.1282 32.2484 39.7755 32.4163 39.3957 32.5283L35.5097 33.6411C35.5368 34.355 35.5707 35.0758 35.6114 35.8037C35.6521 36.5316 35.6792 37.2594 35.6928 37.9873C35.6928 38.4912 35.6046 38.9601 35.4283 39.394C35.2519 39.828 35.001 40.2059 34.6755 40.5278C34.35 40.8498 33.9769 41.1087 33.5565 41.3047C33.136 41.5007 32.6748 41.5986 32.1729 41.5986C31.7525 41.5986 31.3388 41.5216 30.9318 41.3677L27.1679 39.8979L24.9502 43.3623C24.6246 43.8662 24.2041 44.2651 23.6887 44.5591C23.1733 44.853 22.6104 45 22 45C21.4032 45 20.8471 44.853 20.3316 44.5591C19.8162 44.2651 19.3889 43.8662 19.0498 43.3623L16.8321 39.8979L13.0682 41.3677C12.6612 41.5216 12.2475 41.5986 11.8271 41.5986C11.3388 41.5986 10.8844 41.5077 10.4639 41.3257C10.0434 41.1437 9.6704 40.8848 9.34486 40.5488C9.01933 40.2129 8.7684 39.828 8.59207 39.394C8.41573 38.9601 8.32079 38.4912 8.30722 37.9873C8.30722 37.2594 8.32757 36.5316 8.36826 35.8037C8.40895 35.0758 8.44964 34.355 8.49034 33.6411L4.60427 32.5283C4.21092 32.4163 3.85826 32.2484 3.54629 32.0244C3.23432 31.8005 2.96304 31.5345 2.73245 31.2266C2.50187 30.9186 2.32553 30.5757 2.20346 30.1978C2.08138 29.8198 2.01356 29.4209 2 29.001C2 28.5951 2.06782 28.2031 2.20346 27.8252C2.3391 27.4473 2.52899 27.0903 2.77314 26.7544L5.29603 23.5L2.77314 20.2456C2.25771 19.5877 2 18.8389 2 17.999C2 17.5791 2.06104 17.1802 2.18311 16.8022C2.30519 16.4243 2.48152 16.0814 2.71211 15.7734C2.94269 15.4655 3.21397 15.1995 3.52594 14.9756C3.83791 14.7516 4.19736 14.5837 4.60427 14.4717L8.49034 13.3589C8.46321 12.645 8.4293 11.9242 8.38861 11.1963C8.34791 10.4684 8.32079 9.74056 8.30722 9.0127C8.30722 8.50879 8.39539 8.03988 8.57172 7.60596C8.74805 7.17204 8.99898 6.79411 9.32452 6.47217C9.65005 6.15023 10.0231 5.89128 10.4435 5.69531C10.864 5.49935 11.3252 5.40137 11.8271 5.40137C12.2475 5.40137 12.6612 5.47835 13.0682 5.63232L16.8321 7.10205L19.0498 3.6377C19.3754 3.13379 19.7959 2.73486 20.3113 2.44092C20.8267 2.14697 21.3896 2 22 2C22.5968 2 23.1529 2.14697 23.6684 2.44092C24.1838 2.73486 24.6111 3.13379 24.9502 3.6377L27.1679 7.10205L30.9318 5.63232C31.3388 5.47835 31.7525 5.40137 32.1729 5.40137C32.6612 5.40137 33.1156 5.49235 33.5361 5.67432C33.9566 5.85628 34.3296 6.11523 34.6551 6.45117C34.9807 6.78711 35.2316 7.17204 35.4079 7.60596C35.5843 8.03988 35.6792 8.50879 35.6928 9.0127C35.6928 9.74056 35.6724 10.4684 35.6317 11.1963C35.591 11.9242 35.5504 12.645 35.5097 13.3589L39.3957 14.4717C39.7755 14.5837 40.1282 14.7516 40.4537 14.9756C40.7793 15.1995 41.0505 15.4655 41.2675 15.7734C41.4846 16.0814 41.6609 16.4243 41.7965 16.8022C41.9322 17.1802 42 17.5791 42 17.999C42 18.8389 41.7423 19.5877 41.2269 20.2456L38.704 23.5ZM39.3957 29.001C39.3957 28.805 39.3279 28.616 39.1923 28.4341L35.3672 23.5L39.1923 18.5659C39.3279 18.384 39.3957 18.195 39.3957 17.999C39.3957 17.5231 39.1651 17.2152 38.704 17.0752L34.8179 15.9624L32.824 15.3955C32.8647 14.3317 32.919 13.2679 32.9868 12.2041C33.0546 11.1403 33.0885 10.0765 33.0885 9.0127C33.0885 8.77474 32.9936 8.56478 32.8037 8.38281C32.6138 8.20085 32.4035 8.10286 32.1729 8.08887C32.0916 8.08887 31.9084 8.13086 31.6236 8.21484C31.3388 8.29883 31.0064 8.41781 30.6267 8.57178C30.2469 8.72575 29.8264 8.89372 29.3652 9.07568C28.904 9.25765 28.47 9.43262 28.0631 9.60059C27.6562 9.76855 27.2764 9.92253 26.9237 10.0625C26.571 10.2025 26.3065 10.3075 26.1302 10.3774L24.9908 8.59277L22.7731 5.10742C22.5968 4.82747 22.3391 4.6875 22 4.6875C21.6609 4.6875 21.4032 4.82747 21.2269 5.10742L19.0092 8.59277L17.8698 10.3774C17.6935 10.3075 17.4357 10.2025 17.0966 10.0625C16.7575 9.92253 16.371 9.76855 15.9369 9.60059C15.5029 9.43262 15.0688 9.25765 14.6348 9.07568C14.2007 8.89372 13.787 8.73275 13.3937 8.59277C13.0003 8.4528 12.6612 8.33382 12.3764 8.23584C12.0916 8.13786 11.9084 8.08887 11.8271 8.08887C11.5965 8.08887 11.3862 8.17985 11.1963 8.36182C11.0064 8.54378 10.9115 8.76074 10.9115 9.0127C10.9115 10.0765 10.9454 11.1403 11.0132 12.2041C11.081 13.2679 11.1353 14.3317 11.176 15.3955L9.1821 15.9624L5.29603 17.0752C4.83486 17.2152 4.60427 17.5231 4.60427 17.999C4.60427 18.195 4.67209 18.384 4.80773 18.5659L8.63276 23.5L4.80773 28.4341C4.67209 28.616 4.60427 28.805 4.60427 29.001C4.60427 29.4769 4.83486 29.7848 5.29603 29.9248L9.1821 31.0376L11.176 31.6045C11.1353 32.6683 11.081 33.7321 11.0132 34.7959C10.9454 35.8597 10.9115 36.9235 10.9115 37.9873C10.9115 38.2253 11.0064 38.4352 11.1963 38.6172C11.3862 38.7992 11.5965 38.8971 11.8271 38.9111C11.9084 38.9111 12.0916 38.8691 12.3764 38.7852C12.6612 38.7012 12.9936 38.5822 13.3733 38.4282C13.7531 38.2743 14.1736 38.1063 14.6348 37.9243C15.096 37.7424 15.53 37.5674 15.9369 37.3994C16.3438 37.2314 16.7236 37.0775 17.0763 36.9375C17.429 36.7975 17.6935 36.6925 17.8698 36.6226L19.0092 38.4072L21.2269 41.8926C21.4032 42.1725 21.6609 42.3125 22 42.3125C22.3391 42.3125 22.5968 42.1725 22.7731 41.8926L24.9908 38.4072L26.1302 36.6226C26.3065 36.6925 26.5643 36.7975 26.9034 36.9375C27.2425 37.0775 27.629 37.2314 28.0631 37.3994C28.4971 37.5674 28.9312 37.7424 29.3652 37.9243C29.7993 38.1063 30.213 38.2673 30.6063 38.4072C30.9997 38.5472 31.3388 38.6662 31.6236 38.7642C31.9084 38.8621 32.0916 38.9111 32.1729 38.9111C32.4035 38.9111 32.6138 38.8201 32.8037 38.6382C32.9936 38.4562 33.0885 38.2393 33.0885 37.9873C33.0885 36.9235 33.0546 35.8597 32.9868 34.7959C32.919 33.7321 32.8647 32.6683 32.824 31.6045L34.8179 31.0376L38.704 29.9248C39.1651 29.7848 39.3957 29.4769 39.3957 29.001ZM19.3957 26.9644L28.8973 17.1802L30.7284 19.0698L19.3957 30.7856L13.2716 24.4448L15.1027 22.5552L19.3957 26.9644Z" stroke="black" stroke-width="4" mask="url(#path-1-outside-1_78_24)"/>
</g>
<defs>
<filter id="filter0_d_78_24" x="0" y="0" width="46" height="49" filterUnits="userSpaceOnUse" color-interpolation-filters="sRGB">
<feFlood flood-opacity="0" result="BackgroundImageFix"/>
<feColorMatrix in="SourceAlpha" type="matrix" values="0 0 0 0 0 0 0 0 0 0 0 0 0 0 0 0 0 0 127 0" result="hardAlpha"/>
<feOffset dx="2" dy="2"/>
<feComposite in2="hardAlpha" operator="out"/>
<feColorMatrix type="matrix" values="0 0 0 0 0 0 0 0 0 0 0 0 0 0 0 0 0 0 1 0"/>
<feBlend mode="normal" in2="BackgroundImageFix" result="effect1_dropShadow_78_24"/>
<feBlend mode="normal" in="SourceGraphic" in2="effect1_dropShadow_78_24" result="shape"/>
</filter>
</defs>
</svg>
