<svg width="207" height="27" viewBox="0 0 207 27" fill="none" xmlns="http://www.w3.org/2000/svg">
<path d="M183.893 24.956C182.378 24.7344 180.962 24.5295 179.547 24.3112C179.492 24.297 179.442 24.2713 179.398 24.2358C179.354 24.2003 179.318 24.1558 179.293 24.1052C178.672 22.6871 177.653 21.6767 176.273 21.0231C176.223 20.9914 176.176 20.9562 176.132 20.9179C176.562 19.8166 176.994 18.7121 177.426 17.6042C179.44 12.483 181.456 7.36131 183.473 2.23929C183.994 0.922038 184.931 0.111082 186.36 0.00915871C187.726 -0.0827939 188.766 0.519884 189.435 1.71638C189.928 2.60267 189.974 3.56651 189.735 4.53367C189.604 5.06323 189.266 5.42882 188.684 5.51634C188.616 5.54002 188.555 5.58018 188.506 5.6333C188.458 5.68643 188.422 5.75088 188.404 5.82101C188.058 8.27603 187.661 10.7266 187.42 13.1927C187.219 15.2345 187.179 17.2918 187.115 19.3469C187.096 19.974 187.208 20.611 187.31 21.2303C187.357 21.515 187.273 21.6313 187.049 21.762C186.479 22.0944 185.914 22.4334 185.372 22.8079C184.632 23.3219 183.818 23.7894 183.893 24.956ZM183.927 9.40827C184.046 9.4377 184.17 9.44138 184.291 9.41907C184.412 9.39677 184.527 9.34897 184.628 9.27879C184.729 9.20861 184.815 9.11761 184.879 9.01172C184.944 8.90583 184.985 8.78741 185.001 8.66415C185.018 8.5409 185.008 8.41557 184.973 8.29631C184.938 8.17705 184.879 8.06653 184.8 7.97194C184.72 7.87734 184.622 7.80078 184.511 7.74724C184.4 7.6937 184.279 7.66437 184.157 7.66117C184.038 7.63173 183.913 7.62805 183.793 7.65036C183.672 7.67267 183.557 7.72046 183.456 7.79064C183.355 7.86083 183.269 7.95182 183.205 8.05771C183.14 8.1636 183.099 8.28203 183.083 8.40528C183.066 8.52854 183.076 8.65387 183.111 8.77312C183.145 8.89238 183.205 9.0029 183.284 9.0975C183.364 9.19209 183.462 9.26865 183.573 9.32219C183.684 9.37573 183.804 9.40506 183.927 9.40827ZM182.506 12.7463C182.274 12.7201 182.042 12.7865 181.858 12.9313C181.674 13.0762 181.553 13.288 181.521 13.5218C181.501 13.7578 181.57 13.993 181.716 14.1786C181.861 14.3641 182.072 14.486 182.303 14.5188C182.535 14.5463 182.769 14.4793 182.952 14.3325C183.135 14.1857 183.253 13.9712 183.28 13.7361C183.307 13.5011 183.241 13.2647 183.096 13.0791C182.951 12.8935 182.74 12.7737 182.508 12.7463H182.506ZM181.193 18.7863C181.211 18.5593 181.142 18.3341 181.001 18.1564C180.861 17.9788 180.659 17.8619 180.436 17.8295C180.214 17.7971 179.987 17.8516 179.803 17.9819C179.619 18.1123 179.49 18.3088 179.444 18.5315C179.419 18.6517 179.418 18.7758 179.442 18.8962C179.466 19.0166 179.515 19.1307 179.584 19.2314C179.653 19.3322 179.742 19.4174 179.846 19.4818C179.949 19.5462 180.064 19.5885 180.184 19.606C180.304 19.6234 180.426 19.6158 180.543 19.5834C180.66 19.5511 180.77 19.4947 180.864 19.4179C180.959 19.341 181.037 19.2453 181.093 19.1367C181.15 19.0281 181.184 18.9088 181.193 18.7863ZM185.786 2.56943C185.672 2.55383 185.556 2.56112 185.445 2.59088C185.334 2.62064 185.23 2.67228 185.139 2.74286C185.047 2.81343 184.97 2.90156 184.913 3.00221C184.855 3.10285 184.817 3.21404 184.802 3.32942C184.777 3.56468 184.844 3.80054 184.989 3.98578C185.135 4.17101 185.346 4.29066 185.578 4.31874C185.698 4.34707 185.822 4.34951 185.943 4.3259C186.064 4.30228 186.178 4.25315 186.279 4.18171C186.38 4.11026 186.464 4.0181 186.528 3.91125C186.591 3.80439 186.631 3.68524 186.646 3.56156C186.66 3.43788 186.649 3.31245 186.613 3.19345C186.577 3.07446 186.516 2.96457 186.435 2.87095C186.354 2.77734 186.254 2.7021 186.142 2.65015C186.03 2.59819 185.909 2.57069 185.786 2.56943Z" fill="black"/>
<path d="M176.987 17.5322C176.844 17.91 176.732 18.2535 176.579 18.577C176.54 18.6611 176.371 18.7199 176.261 18.7221C176.05 18.7099 175.84 18.6822 175.633 18.639C175.592 18.8606 175.552 19.0589 175.517 19.2594C175.408 19.9031 174.97 20.3163 174.377 20.3429C173.843 20.3662 173.418 19.9994 173.22 19.3957C173.158 19.2421 173.04 19.1182 172.892 19.0489C172.219 18.7542 171.841 18.1227 171.95 17.4203C172.06 16.718 172.579 16.2438 173.324 16.1496C173.486 16.1177 173.63 16.0251 173.727 15.8904C174.08 15.3752 174.583 15.1658 175.114 15.3509C175.644 15.5359 175.942 16.03 175.889 16.6371C175.872 16.8321 175.835 17.0248 175.796 17.3018L176.987 17.5322Z" fill="black"/>
<path d="M178.032 12.312L178.987 12.4516C178.827 12.8692 178.724 13.2659 178.52 13.5971C178.449 13.7079 178.125 13.6713 177.841 13.7079C177.819 13.8586 177.798 14.0646 177.759 14.2618C177.631 14.9177 177.212 15.3021 176.605 15.3232C176.067 15.3409 175.653 14.9819 175.457 14.3704C175.404 14.2309 175.3 14.117 175.167 14.0513C174.462 13.7367 174.074 13.1163 174.183 12.4051C174.278 11.7403 174.839 11.2429 175.568 11.1332C175.728 11.1017 175.872 11.0109 175.971 10.8784C176.322 10.3666 176.811 10.1616 177.359 10.3378C177.856 10.4984 178.167 10.9848 178.135 11.5775C178.121 11.8068 178.073 12.0262 178.032 12.312Z" fill="black"/>
<path d="M180.035 7.26456L180.977 7.40194L180.496 8.67709L179.845 8.62169C179.815 8.82332 179.792 9.02496 179.757 9.22437C179.648 9.8625 179.228 10.2591 178.657 10.2835C178.065 10.3068 177.643 9.96442 177.454 9.34734C177.405 9.20453 177.303 9.08592 177.171 9.01499C176.44 8.66379 176.084 8.08549 176.187 7.37092C176.29 6.65634 176.783 6.22649 177.602 6.09355C177.748 6.0585 177.876 5.97064 177.963 5.8465C178.324 5.31472 178.825 5.11642 179.385 5.31472C179.895 5.4942 180.181 5.99606 180.119 6.62089C180.106 6.81809 180.072 7.00864 180.035 7.26456Z" fill="black"/>
<path d="M181.912 3.61083C181.878 3.84681 181.858 4.05398 181.818 4.26115C181.708 4.82948 181.271 5.22831 180.745 5.25269C180.163 5.28038 179.738 4.9447 179.542 4.3664C179.472 4.18811 179.34 4.04197 179.17 3.95538C178.531 3.64961 178.158 3.02477 178.256 2.34676C178.3 2.02185 178.451 1.7215 178.685 1.4946C178.918 1.2677 179.221 1.1276 179.543 1.09709C179.79 1.06718 179.955 1.01179 180.09 0.764734C180.368 0.266196 180.913 0.100016 181.448 0.286137C181.69 0.372448 181.896 0.537753 182.035 0.755993C182.173 0.974233 182.236 1.233 182.214 1.49149C182.197 1.71306 182.152 1.93464 182.114 2.20163L182.905 2.37667C182.778 3.30839 182.532 3.63299 181.912 3.61083Z" fill="black"/>
<path d="M183.762 25.5277L183.552 27L179.075 26.3441C179.136 25.9243 179.179 25.5221 179.26 25.1255C179.282 25.071 179.318 25.0231 179.363 24.9863C179.408 24.9494 179.462 24.9249 179.519 24.915C180.921 25.1067 182.319 25.316 183.762 25.5277Z" fill="black"/>
<path d="M0 16.9107L0.68672 12.7407L14.6529 5.81438L13.9367 10.135L4.29746 14.8856L4.26466 15.1271L12.3566 19.9042L11.7005 23.8648L0 16.9107Z" fill="black"/>
<path d="M21.846 24.4397C19.737 24.4397 18.1354 23.8651 17.0411 22.7159C15.9469 21.5667 15.4002 19.944 15.4009 17.848C15.3928 16.57 15.584 15.2988 15.9673 14.0812C16.3178 12.9524 16.8741 11.9002 17.6076 10.9792C18.3319 10.0844 19.2447 9.36519 20.279 8.87427C21.3433 8.35726 22.5619 8.09876 23.9346 8.09876C25.7061 8.09876 27.0591 8.4614 27.9937 9.18668C28.9269 9.91063 29.5983 10.9262 29.904 12.076L26.3534 13.7666C26.1749 13.1901 25.8686 12.6626 25.4578 12.2244C25.0802 11.8411 24.4536 11.6495 23.5781 11.6495C23.1802 11.6394 22.7842 11.709 22.4128 11.8542C22.0415 11.9995 21.7021 12.2175 21.4141 12.4959C20.8265 13.0609 20.4434 13.8873 20.2648 14.9753L19.9674 16.7899C19.9219 17.0091 19.892 17.2312 19.8777 17.4547C19.8569 17.7172 19.8471 17.9687 19.8471 18.2113C19.8471 19.0179 20.0512 19.6678 20.4594 20.1612C20.8677 20.6545 21.569 20.9016 22.5633 20.9023C22.8652 20.9029 23.166 20.8657 23.4589 20.7915C23.7889 20.6956 24.0978 20.5365 24.3687 20.3229C24.7655 20.0189 25.1351 19.6801 25.4731 19.3103C25.9795 18.759 26.4541 18.1787 26.8947 17.5721L29.611 19.3558C29.1416 20.1152 28.6233 20.8425 28.0593 21.5327C27.5636 22.1384 26.9898 22.6738 26.3534 23.1247C25.7329 23.5598 25.0478 23.8915 24.3239 24.1074C23.5181 24.3386 22.6835 24.4506 21.846 24.4397Z" fill="black"/>
<path d="M37.7258 24.4397C35.6161 24.4397 33.9842 23.84 32.8302 22.6406C31.6762 21.4411 31.0988 19.803 31.0981 17.7261C31.0981 16.2349 31.3117 14.8944 31.7389 13.7045C32.126 12.5835 32.7356 11.5546 33.5301 10.6812C34.2988 9.85261 35.2355 9.20253 36.2758 8.77567C37.4001 8.32097 38.6018 8.09509 39.8122 8.11095C41.9205 8.11095 43.552 8.71067 44.7067 9.91012C45.8615 11.1096 46.4385 12.7474 46.4378 14.8235C46.4378 16.3154 46.2238 17.6559 45.7959 18.845C45.409 19.966 44.7998 20.9948 44.0058 21.8684C43.237 22.6968 42.3003 23.3469 41.26 23.7739C40.1365 24.2285 38.9356 24.4547 37.7258 24.4397ZM38.0539 21.1438C39.0081 21.1438 39.7889 20.8517 40.3962 20.2675C41.0034 19.6833 41.3964 18.8465 41.575 17.7571L41.961 15.3996C42.0003 15.2179 42.0368 15.0111 42.0703 14.7792C42.0982 14.5735 42.1132 14.3663 42.1152 14.1588C42.1152 13.2326 41.8811 12.5424 41.4131 12.0882C40.9451 11.634 40.3021 11.4083 39.4842 11.4113C38.5285 11.4113 37.7473 11.7034 37.1408 12.2876C36.5343 12.8718 36.1413 13.7086 35.962 14.798L35.5738 17.1566C35.5345 17.3372 35.4995 17.5444 35.4699 17.7759C35.4437 17.9798 35.4302 18.1852 35.4295 18.3908C35.4295 19.3192 35.6631 20.0098 36.1304 20.4625C36.5977 20.9153 37.2389 21.1424 38.0539 21.1438Z" fill="black"/>
<path d="M56.8826 20.3273H56.7339C56.4558 20.9011 56.1417 21.4561 55.7935 21.9891C55.4819 22.4669 55.1107 22.9018 54.6891 23.2831C54.2846 23.6469 53.82 23.9357 53.3167 24.1362C52.7577 24.3485 52.164 24.4519 51.5671 24.4408C50.7514 24.4408 50.0588 24.2998 49.4894 24.0176C48.9329 23.7383 48.4586 23.3157 48.1138 22.7923C47.7345 22.2075 47.4664 21.556 47.3232 20.8713C47.1447 20.057 47.0578 19.2249 47.0641 18.3908C47.0465 16.9689 47.2157 15.551 47.5671 14.1743C47.9046 12.9143 48.3821 11.8359 48.9996 10.9393C49.5744 10.0817 50.3347 9.36825 51.2227 8.85321C52.1121 8.35303 53.1153 8.0975 54.1325 8.11205C55.3462 8.11205 56.2666 8.40194 56.8936 8.98172C57.5205 9.56151 57.9448 10.3714 58.1664 11.4113H58.3753L59.9565 1.70639H64.3141L60.6432 24.0852H56.2856L56.8826 20.3273ZM53.5103 20.9921C54.0146 21.0009 54.5111 20.8654 54.9427 20.601C55.3908 20.3129 55.785 19.9468 56.1073 19.5197C56.4086 19.1482 56.6779 18.7513 56.9121 18.3332C57.218 17.8013 57.4207 17.215 57.5092 16.606L57.9269 14.1111C58.0654 13.2906 57.9411 12.6598 57.554 12.2189C57.1669 11.778 56.4955 11.5564 55.5398 11.5542C54.4645 11.5542 53.6389 11.8696 53.063 12.5003C52.4871 13.131 52.0989 14.0376 51.8984 15.2201L51.5999 17.0226C51.5568 17.2257 51.5269 17.4315 51.5102 17.6386C51.4906 17.869 51.4807 18.1149 51.4807 18.3742C51.5004 19.1128 51.6546 19.7339 51.9433 20.2376C52.232 20.7413 52.7543 20.9932 53.5103 20.9932V20.9921Z" fill="black"/>
<path d="M70.4325 24.4398C68.1434 24.4398 66.4522 23.8489 65.3587 22.6672C64.2651 21.4855 63.7184 19.858 63.7184 17.7848C63.7013 16.4351 63.9235 15.0933 64.3745 13.8231C64.7779 12.6908 65.4023 11.6524 66.2105 10.7698C67.0091 9.9152 67.9809 9.24586 69.0591 8.80782C70.2456 8.33 71.5134 8.09359 72.7901 8.11209C73.5298 8.10752 74.267 8.19911 74.9837 8.38462C75.6259 8.54597 76.2364 8.81683 76.789 9.18561C77.2944 9.52517 77.7136 9.98063 78.0127 10.515C78.3227 11.0945 78.4773 11.7462 78.461 12.4051C78.4577 13.05 78.3268 13.6878 78.0761 14.2807C77.8166 14.9055 77.3139 15.4749 76.5681 15.989C75.8224 16.503 74.7679 16.9362 73.4046 17.2885C72.0421 17.6416 70.2666 17.8583 68.0782 17.9388C68.0603 18.0335 68.05 18.1294 68.0476 18.2258V18.4529C68.0476 19.2993 68.2765 19.9444 68.7343 20.3883C69.1921 20.8322 69.9481 21.0538 71.0022 21.053C71.3886 21.0566 71.7741 21.0161 72.1515 20.9323C72.5125 20.8452 72.8558 20.6952 73.1663 20.4891C73.5228 20.2543 73.8529 19.9805 74.1504 19.6726C74.5378 19.2691 74.8994 18.841 75.233 18.3908L77.9492 20.1756C77.5563 20.7555 77.1237 21.3067 76.6545 21.8252C76.1811 22.345 75.6446 22.8022 75.058 23.1857C74.4303 23.5933 73.7463 23.9043 73.0285 24.1085C72.1827 24.3416 71.3089 24.4531 70.4325 24.4398ZM72.3428 11.2263C71.3871 11.2263 70.5714 11.5136 69.8956 12.0882C69.2198 12.6628 68.7419 13.6252 68.462 14.9753L68.3734 15.3996C69.7461 15.3191 70.8254 15.188 71.6113 15.0063C72.3972 14.8246 72.984 14.613 73.3718 14.3715C73.7597 14.1293 74.0035 13.8671 74.1034 13.5849C74.1971 13.3333 74.2474 13.0672 74.2521 12.7983C74.2499 11.7518 73.6135 11.2278 72.3428 11.2263Z" fill="black"/>
<path d="M82.3998 2.97157H88.5234C90.8715 2.97157 92.6576 3.63629 93.8816 4.96572C95.1056 6.29516 95.715 8.2221 95.7099 10.7465C95.7099 12.8242 95.4912 14.6891 95.0538 16.3413C94.6164 17.9934 93.9749 19.3942 93.1292 20.5434C92.3099 21.6703 91.2279 22.5743 89.9799 23.1746C88.7268 23.7794 87.2943 24.0819 85.6825 24.0819H78.9082L82.3998 2.97157ZM85.7721 20.5389C87.1055 20.5389 88.1501 20.1508 88.9061 19.3746C89.6621 18.5983 90.1793 17.3941 90.4578 15.7618L91.0888 11.9519C91.1489 11.5896 91.1981 11.2263 91.2233 10.864C91.2484 10.5017 91.2681 10.1782 91.2681 9.89571C91.2681 7.63936 90.2234 6.51045 88.1341 6.50897H86.1899L83.8935 20.5389H85.7721Z" fill="black"/>
<path d="M98.6339 24.0775L100.635 11.922H97.1129L97.6804 8.47432H105.559L104.758 13.1916H104.937C105.573 11.7004 106.379 10.5412 107.354 9.71402C108.328 8.88681 109.572 8.47358 111.085 8.47432H112.099L111.323 12.8892H108.603C107.787 12.8892 107.135 12.9999 106.648 13.2215C106.149 13.4538 105.713 13.8068 105.38 14.2496C105.115 14.5986 104.885 14.9734 104.693 15.3685C104.438 15.8627 104.257 16.3925 104.156 16.9406L102.993 24.0775H98.6339Z" fill="black"/>
<path d="M118.303 24.4397C116.194 24.4397 114.562 23.84 113.408 22.6406C112.254 21.4411 111.677 19.803 111.677 17.7261C111.677 16.2349 111.891 14.8944 112.318 13.7045C112.705 12.5835 113.315 11.5546 114.109 10.6812C114.878 9.85261 115.814 9.20253 116.855 8.77567C117.979 8.32097 119.181 8.09509 120.391 8.11095C122.499 8.11095 124.131 8.71067 125.286 9.91012C126.44 11.1096 127.017 12.7474 127.017 14.8235C127.017 16.3154 126.803 17.6559 126.375 18.845C125.988 19.966 125.379 20.9948 124.585 21.8684C123.816 22.6968 122.879 23.3469 121.839 23.7739C120.715 24.2288 119.513 24.455 118.303 24.4397ZM118.631 21.1438C119.586 21.1438 120.366 20.8517 120.973 20.2675C121.579 19.6833 121.972 18.8465 122.152 17.7571L122.54 15.3996C122.579 15.2179 122.616 15.0111 122.649 14.7792C122.677 14.5735 122.692 14.3663 122.694 14.1588C122.694 13.2326 122.46 12.5424 121.992 12.0882C121.524 11.634 120.882 11.4083 120.066 11.4113C119.111 11.4113 118.33 11.7034 117.723 12.2876C117.116 12.8718 116.724 13.7086 116.544 14.798L116.156 17.1566C116.117 17.3372 116.082 17.5444 116.047 17.7759C116.019 17.9812 116.004 18.1881 116.002 18.3952C116.002 19.3236 116.235 20.0142 116.703 20.4669C117.17 20.9197 117.813 21.1453 118.631 21.1438Z" fill="black"/>
<path d="M135.403 24.4397C134.17 24.4397 133.245 24.1122 132.628 23.4571C132.011 22.8019 131.703 21.9201 131.703 20.8115C131.702 20.4782 131.722 20.1452 131.762 19.8144C131.802 19.492 131.881 19.019 132.001 18.393L133.194 11.9231H128.539L129.106 8.47544H138.182L135.885 20.8436L136.393 20.9943L140.571 16.6803L142.958 18.8472L141.138 20.9633C140.123 22.1125 139.173 22.9796 138.288 23.5645C137.433 24.1392 136.429 24.4438 135.403 24.4397ZM136.627 6.41924C135.731 6.41924 135.099 6.24272 134.732 5.88969C134.554 5.72234 134.413 5.51853 134.319 5.2918C134.224 5.06506 134.179 4.8206 134.185 4.57465C134.188 4.43794 134.197 4.30147 134.215 4.16585C134.234 3.99524 134.275 3.72271 134.334 3.36487C134.433 2.72009 134.702 2.22635 135.14 1.88365C135.578 1.54095 136.245 1.36961 137.14 1.36961C138.036 1.36961 138.667 1.54576 139.035 1.89806C139.213 2.0657 139.353 2.26972 139.448 2.49662C139.542 2.72351 139.588 2.9681 139.582 3.2142C139.579 3.35054 139.569 3.48665 139.552 3.62189C139.531 3.79398 139.491 4.06097 139.433 4.42287C139.332 5.06839 139.064 5.5625 138.627 5.9052C138.19 6.24789 137.524 6.41924 136.627 6.41924Z" fill="black"/>
<path d="M153.578 20.3273H153.429C153.151 20.9011 152.837 21.4561 152.489 21.9891C152.177 22.4669 151.806 22.9018 151.384 23.2831C150.98 23.6469 150.515 23.9357 150.012 24.1362C149.453 24.3485 148.859 24.4519 148.263 24.4408C147.447 24.4408 146.754 24.2998 146.185 24.0176C145.624 23.7406 145.145 23.3183 144.797 22.7934C144.417 22.2088 144.149 21.5572 144.007 20.8724C143.83 20.0583 143.745 19.2265 143.753 18.393C143.737 16.9706 143.907 15.5523 144.26 14.1754C144.599 12.9154 145.076 11.8371 145.693 10.9404C146.267 10.0826 147.028 9.36904 147.916 8.85432C148.805 8.35414 149.809 8.09861 150.826 8.11316C152.04 8.11316 152.96 8.40305 153.587 8.98283C154.214 9.56261 154.639 10.3721 154.862 11.4113H155.071L156.652 1.70639H161.01L157.339 24.0852H152.981L153.578 20.3273ZM150.206 20.9921C150.71 21.0009 151.207 20.8654 151.638 20.601C152.086 20.3131 152.48 19.947 152.802 19.5197C153.103 19.1483 153.373 18.7513 153.608 18.3332C153.913 17.8013 154.116 17.215 154.205 16.606L154.622 14.1111C154.761 13.2906 154.637 12.6598 154.249 12.2189C153.862 11.778 153.191 11.5564 152.235 11.5542C151.16 11.5542 150.334 11.8696 149.758 12.5003C149.183 13.131 148.794 14.0376 148.594 15.2201L148.295 17.0226C148.252 17.2257 148.222 17.4315 148.206 17.6386C148.186 17.869 148.176 18.1149 148.176 18.3742C148.196 19.1128 148.35 19.7339 148.639 20.2376C148.927 20.7413 149.45 20.9932 150.206 20.9932V20.9921Z" fill="black"/>
<path d="M193.032 19.5109L202.701 14.7637L202.731 14.5222L194.614 9.77499L195.27 5.81438L207 12.7407L206.313 16.913L192.316 23.898L193.032 19.5109Z" fill="black"/>
</svg>
