<svg width="27" height="207" viewBox="0 0 27 207" fill="none" xmlns="http://www.w3.org/2000/svg">
<path d="M24.956 23.1068C24.7344 24.6224 24.5295 26.0385 24.3112 27.4534C24.297 27.5077 24.2713 27.5584 24.2358 27.6021C24.2003 27.6459 24.1558 27.6817 24.1052 27.7071C22.6871 28.3282 21.6767 29.3474 21.0231 30.7274C20.9914 30.7768 20.9562 30.8239 20.9178 30.8685C19.8166 30.4376 18.7121 30.006 17.6042 29.5737C12.4829 27.5595 7.3613 25.5438 2.23928 23.5267C0.92203 23.0062 0.111074 22.069 0.00915056 20.6398C-0.0828021 19.274 0.519875 18.2341 1.71637 17.5649C2.60266 17.0717 3.5665 17.0258 4.53366 17.2653C5.06322 17.3965 5.42882 17.7344 5.51634 18.3161C5.54001 18.3838 5.58017 18.4448 5.6333 18.4936C5.68642 18.5424 5.75087 18.5776 5.821 18.5961C8.27602 18.9416 10.7266 19.3385 13.1927 19.5802C15.2345 19.7814 17.2918 19.8208 19.3469 19.8853C19.9739 19.9039 20.611 19.7924 21.2303 19.6896C21.515 19.6426 21.6313 19.7267 21.762 19.9509C22.0944 20.5206 22.4334 21.086 22.8079 21.6284C23.3219 22.3676 23.7894 23.1822 24.956 23.1068ZM9.40826 23.0729C9.43769 22.9536 9.44137 22.8296 9.41907 22.7089C9.39676 22.5881 9.34896 22.4734 9.27878 22.3721C9.2086 22.2707 9.11761 22.1851 9.01171 22.1208C8.90582 22.0565 8.7874 22.0149 8.66414 21.9987C8.54089 21.9825 8.41556 21.992 8.2963 22.0268C8.17704 22.0615 8.06652 22.1206 7.97193 22.2003C7.87733 22.2799 7.80078 22.3784 7.74724 22.4891C7.69369 22.5999 7.66437 22.7205 7.66116 22.8432C7.63173 22.9625 7.62804 23.0865 7.65035 23.2072C7.67266 23.328 7.72046 23.4427 7.79064 23.5441C7.86082 23.6454 7.95181 23.731 8.0577 23.7953C8.1636 23.8596 8.28202 23.9012 8.40527 23.9174C8.52853 23.9337 8.65386 23.9241 8.77312 23.8893C8.89237 23.8546 9.00289 23.7955 9.09749 23.7158C9.19208 23.6362 9.26864 23.5377 9.32218 23.427C9.37572 23.3162 9.40505 23.1956 9.40826 23.0729ZM12.7462 24.4944C12.7201 24.7259 12.7865 24.9583 12.9313 25.1421C13.0762 25.3259 13.288 25.4467 13.5218 25.4786C13.7578 25.4994 13.993 25.4298 14.1785 25.2843C14.3641 25.1387 14.4859 24.9284 14.5188 24.6967C14.5463 24.4647 14.4793 24.2314 14.3325 24.0482C14.1857 23.865 13.9712 23.7468 13.7361 23.7197C13.5011 23.6926 13.2647 23.7587 13.0791 23.9036C12.8934 24.0485 12.7737 24.2602 12.7462 24.4922L12.7462 24.4944ZM18.7863 25.8066C18.5593 25.7894 18.3341 25.8581 18.1564 25.9987C17.9788 26.1393 17.8619 26.3413 17.8295 26.5637C17.7971 26.7862 17.8516 27.0125 17.9819 27.1968C18.1123 27.3811 18.3088 27.5096 18.5315 27.5562C18.6517 27.5814 18.7758 27.5819 18.8962 27.5578C19.0166 27.5337 19.1307 27.4854 19.2314 27.416C19.3321 27.3466 19.4174 27.2575 19.4818 27.1543C19.5462 27.051 19.5885 26.9358 19.6059 26.8158C19.6234 26.6958 19.6158 26.5735 19.5834 26.4565C19.5511 26.3396 19.4947 26.2304 19.4179 26.1358C19.341 26.0412 19.2453 25.9631 19.1367 25.9065C19.0281 25.8499 18.9088 25.8159 18.7863 25.8066ZM2.56942 21.2139C2.55383 21.3278 2.56112 21.4436 2.59087 21.5547C2.62063 21.6658 2.67227 21.77 2.74285 21.8614C2.81343 21.9528 2.90155 22.0296 3.0022 22.0873C3.10284 22.1451 3.21403 22.1827 3.32942 22.1981C3.56467 22.2233 3.80053 22.156 3.98577 22.0106C4.171 21.8652 4.29065 21.6536 4.31874 21.4217C4.34706 21.302 4.3495 21.1777 4.32589 21.0569C4.30228 20.9362 4.25314 20.8217 4.1817 20.721C4.11025 20.6203 4.01809 20.5356 3.91124 20.4724C3.80438 20.4092 3.68523 20.3689 3.56155 20.3542C3.43787 20.3395 3.31244 20.3507 3.19345 20.3871C3.07445 20.4235 2.96456 20.4842 2.87095 20.5653C2.77733 20.6465 2.70209 20.7462 2.65014 20.8579C2.59818 20.9697 2.57068 21.091 2.56942 21.2139Z" fill="black"/>
<path d="M17.5322 30.0131C17.91 30.1563 18.2534 30.2679 18.5769 30.421C18.6611 30.4603 18.7199 30.6287 18.7221 30.7392C18.7099 30.9501 18.6822 31.1599 18.639 31.3669C18.8606 31.4084 19.0589 31.4478 19.2594 31.4828C19.9031 31.5921 20.3163 32.0295 20.3429 32.6233C20.3661 33.1569 19.9994 33.5823 19.3957 33.7802C19.2421 33.8423 19.1182 33.9595 19.0489 34.1083C18.7542 34.7808 18.1227 35.1591 17.4203 35.0498C16.718 34.9404 16.2438 34.421 16.1496 33.6763C16.1177 33.5144 16.0251 33.3704 15.8904 33.2728C15.3752 32.9196 15.1658 32.4166 15.3508 31.8863C15.5359 31.3559 16.03 31.0585 16.6371 31.111C16.8321 31.1285 17.0248 31.1646 17.3018 31.2039L17.5322 30.0131Z" fill="black"/>
<path d="M12.312 28.9677L12.4516 28.0131C12.8692 28.1727 13.2659 28.2755 13.5971 28.48C13.7079 28.5511 13.6713 28.8747 13.7079 29.1591C13.8586 29.1809 14.0646 29.2017 14.2618 29.2411C14.9177 29.369 15.3021 29.7878 15.3232 30.3947C15.3409 30.9327 14.9819 31.3472 14.3704 31.5429C14.2309 31.5964 14.117 31.6999 14.0513 31.8327C13.7367 32.538 13.1163 32.9262 12.405 32.8168C11.7403 32.7217 11.2429 32.1607 11.1332 31.4324C11.1017 31.2715 11.0109 31.1278 10.8784 31.0289C10.3666 30.6779 10.1616 30.1891 10.3378 29.6413C10.4984 29.1437 10.9848 28.8332 11.5775 28.8649C11.8068 28.8791 12.0262 28.9272 12.312 28.9677Z" fill="black"/>
<path d="M7.26455 26.9648L7.40193 26.0233L8.67708 26.5045L8.62168 27.1551C8.82332 27.1846 9.02495 27.2076 9.22436 27.2426C9.86249 27.3519 10.2591 27.7719 10.2835 28.3427C10.3067 28.9353 9.96442 29.3574 9.34734 29.5455C9.20452 29.5955 9.08591 29.6966 9.01498 29.8287C8.66378 30.5603 8.08548 30.9157 7.37091 30.8129C6.65634 30.7101 6.22649 30.2169 6.09354 29.3979C6.05849 29.2519 5.97063 29.1236 5.84649 29.037C5.31472 28.6762 5.11641 28.1754 5.31472 27.6155C5.49419 27.1048 5.99605 26.8194 6.62089 26.8806C6.81808 26.8938 7.00864 26.9277 7.26455 26.9648Z" fill="black"/>
<path d="M3.61083 25.0882C3.8468 25.1221 4.05397 25.1418 4.26114 25.1823C4.82947 25.2916 5.22831 25.729 5.25268 26.255C5.28037 26.8367 4.94469 27.2621 4.36639 27.4578C4.1881 27.5283 4.04196 27.6605 3.95537 27.8296C3.6496 28.4693 3.02477 28.8422 2.34675 28.7438C2.02184 28.7 1.72149 28.549 1.49459 28.3153C1.26769 28.0816 1.12759 27.779 1.09708 27.4567C1.06717 27.2096 1.01178 27.0445 0.764726 26.91C0.266188 26.6322 0.100008 26.0866 0.286129 25.5519C0.37244 25.3103 0.537745 25.104 0.755985 24.9654C0.974225 24.8268 1.23299 24.7638 1.49148 24.7864C1.71306 24.8028 1.93463 24.8477 2.20162 24.8859L2.37667 24.0953C3.30838 24.2222 3.63298 24.4682 3.61083 25.0882Z" fill="black"/>
<path d="M25.5276 23.2378L27 23.4477L26.3441 27.9245C25.9243 27.8644 25.5221 27.8206 25.1255 27.7397C25.071 27.7177 25.0231 27.6824 24.9863 27.637C24.9494 27.5917 24.9249 27.5378 24.915 27.4806C25.1067 26.0787 25.316 24.6812 25.5276 23.2378Z" fill="black"/>
<path d="M16.9107 207L12.7407 206.313L5.81438 192.347L10.135 193.063L14.8856 202.703L15.1271 202.735L19.9042 194.643L23.8648 195.3L16.9107 207Z" fill="black"/>
<path d="M24.4397 185.154C24.4397 187.263 23.8651 188.865 22.7159 189.959C21.5667 191.053 19.944 191.6 17.848 191.599C16.57 191.607 15.2988 191.416 14.0812 191.033C12.9524 190.682 11.9002 190.126 10.9792 189.392C10.0844 188.668 9.36519 187.755 8.87427 186.721C8.35726 185.657 8.09876 184.438 8.09876 183.065C8.09876 181.294 8.4614 179.941 9.18668 179.006C9.91063 178.073 10.9262 177.402 12.076 177.096L13.7666 180.647C13.1901 180.825 12.6625 181.131 12.2244 181.542C11.8411 181.92 11.6495 182.546 11.6495 183.422C11.6394 183.82 11.709 184.216 11.8542 184.587C11.9995 184.959 12.2175 185.298 12.4959 185.586C13.0609 186.174 13.8873 186.557 14.9753 186.735L16.7899 187.033C17.0091 187.078 17.2312 187.108 17.4547 187.122C17.7172 187.143 17.9687 187.153 18.2113 187.153C19.0179 187.153 19.6678 186.949 20.1612 186.541C20.6545 186.132 20.9016 185.431 20.9023 184.437C20.9029 184.135 20.8657 183.834 20.7915 183.541C20.6956 183.211 20.5365 182.902 20.3229 182.631C20.0189 182.235 19.6801 181.865 19.3103 181.527C18.759 181.02 18.1787 180.546 17.5721 180.105L19.3558 177.389C20.1152 177.858 20.8425 178.377 21.5327 178.941C22.1384 179.436 22.6738 180.01 23.1247 180.647C23.5598 181.267 23.8915 181.952 24.1074 182.676C24.3386 183.482 24.4506 184.317 24.4397 185.154Z" fill="black"/>
<path d="M24.4397 169.274C24.4397 171.384 23.84 173.016 22.6406 174.17C21.4411 175.324 19.803 175.901 17.7261 175.902C16.2349 175.902 14.8944 175.688 13.7045 175.261C12.5835 174.874 11.5546 174.264 10.6812 173.47C9.85261 172.701 9.20253 171.764 8.77566 170.724C8.32096 169.6 8.09509 168.398 8.11095 167.188C8.11095 165.079 8.71067 163.448 9.91012 162.293C11.1096 161.139 12.7474 160.562 14.8235 160.562C16.3154 160.562 17.6559 160.776 18.845 161.204C19.966 161.591 20.9948 162.2 21.8684 162.994C22.6968 163.763 23.3469 164.7 23.7739 165.74C24.2285 166.864 24.4547 168.064 24.4397 169.274ZM21.1438 168.946C21.1438 167.992 20.8517 167.211 20.2675 166.604C19.6833 165.997 18.8465 165.604 17.7571 165.425L15.3996 165.039C15.2179 165 15.0111 164.963 14.7792 164.93C14.5735 164.902 14.3663 164.887 14.1588 164.885C13.2326 164.885 12.5424 165.119 12.0882 165.587C11.634 166.055 11.4083 166.698 11.4113 167.516C11.4113 168.472 11.7034 169.253 12.2876 169.859C12.8718 170.466 13.7086 170.859 14.798 171.038L17.1566 171.426C17.3372 171.466 17.5444 171.501 17.7759 171.53C17.9798 171.556 18.1852 171.57 18.3908 171.571C19.3192 171.571 20.0098 171.337 20.4625 170.87C20.9153 170.402 21.1424 169.761 21.1438 168.946Z" fill="black"/>
<path d="M20.3273 150.117L20.3273 150.266C20.9011 150.544 21.4561 150.858 21.9891 151.207C22.4669 151.518 22.9018 151.889 23.2831 152.311C23.6469 152.715 23.9357 153.18 24.1362 153.683C24.3485 154.242 24.4519 154.836 24.4408 155.433C24.4408 156.249 24.2998 156.941 24.0176 157.511C23.7383 158.067 23.3157 158.541 22.7923 158.886C22.2075 159.266 21.5559 159.534 20.8713 159.677C20.057 159.855 19.2249 159.942 18.3908 159.936C16.9689 159.953 15.551 159.784 14.1743 159.433C12.9143 159.095 11.8359 158.618 10.9393 158C10.0817 157.426 9.36825 156.665 8.85321 155.777C8.35303 154.888 8.0975 153.885 8.11205 152.868C8.11205 151.654 8.40194 150.733 8.98172 150.106C9.5615 149.48 10.3714 149.055 11.4113 148.834L11.4113 148.625L1.70639 147.044L1.70639 142.686L24.0852 146.357L24.0852 150.714L20.3273 150.117ZM20.9921 153.49C21.0009 152.985 20.8654 152.489 20.601 152.057C20.3129 151.609 19.9468 151.215 19.5197 150.893C19.1482 150.591 18.7513 150.322 18.3332 150.088C17.8013 149.782 17.215 149.579 16.606 149.491L14.1111 149.073C13.2906 148.935 12.6598 149.059 12.2189 149.446C11.778 149.833 11.5564 150.504 11.5542 151.46C11.5542 152.535 11.8696 153.361 12.5003 153.937C13.131 154.513 14.0376 154.901 15.2201 155.102L17.0226 155.4C17.2257 155.443 17.4315 155.473 17.6386 155.49C17.869 155.509 18.1149 155.519 18.3742 155.519C19.1128 155.5 19.7339 155.345 20.2376 155.057C20.7413 154.768 20.9932 154.246 20.9932 153.49L20.9921 153.49Z" fill="black"/>
<path d="M24.4398 136.568C24.4398 138.857 23.8489 140.548 22.6672 141.641C21.4855 142.735 19.858 143.282 17.7848 143.282C16.4351 143.299 15.0933 143.076 13.8231 142.626C12.6908 142.222 11.6524 141.598 10.7698 140.79C9.9152 139.991 9.24586 139.019 8.80782 137.941C8.33 136.754 8.09359 135.487 8.11208 134.21C8.10752 133.47 8.19911 132.733 8.38462 132.016C8.54597 131.374 8.81682 130.764 9.1856 130.211C9.52516 129.706 9.98062 129.286 10.515 128.987C11.0945 128.677 11.7462 128.523 12.4051 128.539C13.05 128.542 13.6878 128.673 14.2807 128.924C14.9055 129.183 15.4749 129.686 15.989 130.432C16.503 131.178 16.9362 132.232 17.2885 133.595C17.6416 134.958 17.8583 136.733 17.9388 138.922C18.0335 138.94 18.1294 138.95 18.2258 138.952L18.4529 138.952C19.2993 138.952 19.9444 138.724 20.3883 138.266C20.8322 137.808 21.0538 137.052 21.053 135.998C21.0566 135.611 21.0161 135.226 20.9323 134.849C20.8451 134.488 20.6952 134.144 20.4891 133.834C20.2543 133.477 19.9805 133.147 19.6726 132.85C19.2691 132.462 18.841 132.101 18.3908 131.767L20.1756 129.051C20.7555 129.444 21.3067 129.876 21.8252 130.345C22.345 130.819 22.8022 131.355 23.1857 131.942C23.5933 132.57 23.9043 133.254 24.1085 133.972C24.3416 134.817 24.4531 135.691 24.4398 136.568ZM11.2263 134.657C11.2263 135.613 11.5136 136.429 12.0882 137.104C12.6628 137.78 13.6252 138.258 14.9753 138.538L15.3996 138.627C15.3191 137.254 15.188 136.175 15.0063 135.389C14.8246 134.603 14.613 134.016 14.3715 133.628C14.1293 133.24 13.8671 132.996 13.5849 132.897C13.3333 132.803 13.0672 132.753 12.7983 132.748C11.7518 132.75 11.2278 133.386 11.2263 134.657Z" fill="black"/>
<path d="M2.97157 124.6L2.97156 118.477C2.97156 116.128 3.63628 114.342 4.96572 113.118C6.29515 111.894 8.2221 111.285 10.7465 111.29C12.8242 111.29 14.6891 111.509 16.3413 111.946C17.9934 112.384 19.3942 113.025 20.5434 113.871C21.6703 114.69 22.5743 115.772 23.1745 117.02C23.7794 118.273 24.0819 119.706 24.0819 121.318L24.0819 128.092L2.97157 124.6ZM20.5389 121.228C20.5389 119.895 20.1508 118.85 19.3746 118.094C18.5983 117.338 17.3941 116.821 15.7618 116.542L11.9519 115.911C11.5896 115.851 11.2263 115.802 10.864 115.777C10.5017 115.752 10.1782 115.732 9.89571 115.732C7.63936 115.732 6.51045 116.777 6.50897 118.866L6.50897 120.81L20.5389 123.106L20.5389 121.228Z" fill="black"/>
<path d="M24.0775 108.366L11.922 106.365L11.922 109.887L8.47432 109.32L8.47431 101.441L13.1916 102.242L13.1916 102.063C11.7004 101.427 10.5412 100.621 9.71401 99.6465C8.88681 98.6718 8.47358 97.4281 8.47431 95.9155L8.47431 94.9007L12.8891 95.6771L12.8891 98.3966C12.8891 99.2131 12.9999 99.8648 13.2215 100.352C13.4538 100.851 13.8068 101.287 14.2496 101.62C14.5985 101.885 14.9734 102.115 15.3685 102.307C15.8627 102.562 16.3925 102.743 16.9406 102.844L24.0775 104.007L24.0775 108.366Z" fill="black"/>
<path d="M24.4397 88.6974C24.4397 90.8064 23.84 92.4379 22.6406 93.5919C21.4411 94.7459 19.803 95.323 17.7261 95.323C16.2349 95.323 14.8944 95.1093 13.7045 94.6822C12.5835 94.295 11.5546 93.6855 10.6812 92.891C9.85261 92.1223 9.20253 91.1855 8.77566 90.1452C8.32096 89.0209 8.09509 87.8193 8.11094 86.6088C8.11094 84.5006 8.71067 82.8691 9.91011 81.7143C11.1096 80.5596 12.7473 79.9826 14.8235 79.9833C16.3154 79.9833 17.6559 80.1973 18.845 80.6252C19.966 81.0121 20.9948 81.6213 21.8684 82.4153C22.6968 83.1841 23.3469 84.1208 23.7739 85.161C24.2288 86.2853 24.455 87.4869 24.4397 88.6974ZM21.1438 88.3694C21.1438 87.4144 20.8517 86.6336 20.2675 86.0271C19.6833 85.4205 18.8465 85.0276 17.7571 84.8483L15.3996 84.4601C15.2179 84.4207 15.0111 84.3843 14.7792 84.3507C14.5735 84.3229 14.3663 84.3079 14.1588 84.3059C13.2326 84.3059 12.5424 84.5399 12.0882 85.0079C11.6339 85.476 11.4083 86.1179 11.4113 86.9336C11.4113 87.8893 11.7034 88.6704 12.2876 89.277C12.8718 89.8835 13.7086 90.2764 14.798 90.4558L17.1566 90.844C17.3372 90.8833 17.5444 90.9183 17.7759 90.9533C17.9812 90.9811 18.188 90.9961 18.3952 90.9982C19.3236 90.9982 20.0142 90.7645 20.4669 90.2972C20.9197 89.8299 21.1453 89.1873 21.1438 88.3694Z" fill="black"/>
<path d="M24.4397 71.5967C24.4397 72.8302 24.1122 73.7553 23.4571 74.3721C22.8019 74.9888 21.9201 75.2971 20.8115 75.2971C20.4782 75.2976 20.1452 75.2779 19.8144 75.2381C19.492 75.1976 19.019 75.1189 18.393 74.9986L11.9231 73.8056L11.9231 78.4607L8.47543 77.8942L8.47543 68.8182L20.8436 71.1145L20.9943 70.6071L16.6803 66.4288L18.8472 64.0417L20.9633 65.8624C22.1125 66.8772 22.9796 67.8271 23.5645 68.7121C24.1392 69.5669 24.4438 70.5709 24.4397 71.5967ZM6.41924 70.3731C6.41924 71.2691 6.24272 71.9007 5.88968 72.2682C5.72233 72.4462 5.51852 72.587 5.29179 72.6812C5.06506 72.7755 4.82059 72.8211 4.57465 72.8149C4.43794 72.8125 4.30146 72.8026 4.16584 72.7854C3.99523 72.7657 3.7227 72.7253 3.36486 72.6662C2.72008 72.567 2.22635 72.2984 1.88365 71.8603C1.54095 71.4222 1.3696 70.7555 1.3696 69.8603C1.3696 68.9643 1.54575 68.3326 1.89805 67.9652C2.0657 67.7873 2.26972 67.6465 2.49661 67.5523C2.72351 67.458 2.9681 67.4124 3.21419 67.4185C3.35054 67.4209 3.48664 67.4308 3.62188 67.448C3.79397 67.4691 4.06097 67.5089 4.42287 67.5672C5.06838 67.6678 5.56249 67.9364 5.90519 68.3731C6.24789 68.8098 6.41924 69.4765 6.41924 70.3731Z" fill="black"/>
<path d="M20.3273 53.422L20.3273 53.5707C20.901 53.8488 21.4561 54.1629 21.9891 54.5111C22.4669 54.8227 22.9018 55.1939 23.2831 55.6155C23.6469 56.02 23.9357 56.4845 24.1362 56.9879C24.3485 57.5469 24.4519 58.1405 24.4408 58.7375C24.4408 59.5532 24.2998 60.2458 24.0176 60.8151C23.7406 61.3761 23.3183 61.8548 22.7934 62.2028C22.2088 62.5825 21.5572 62.8507 20.8724 62.9934C20.0583 63.1699 19.2265 63.255 18.393 63.2471C16.9706 63.2633 15.5522 63.0926 14.1754 62.7397C12.9154 62.4014 11.837 61.9239 10.9404 61.3072C10.0826 60.7327 9.36903 59.9723 8.85431 59.0841C8.35413 58.1947 8.0986 57.1915 8.11315 56.1743C8.11315 54.9605 8.40304 54.0401 8.98283 53.4132C9.56261 52.7863 10.3721 52.3612 11.4113 52.1382L11.4113 51.9293L1.70638 50.3481L1.70638 45.9905L24.0852 49.6614L24.0852 54.019L20.3273 53.422ZM20.9921 56.7943C21.0009 56.29 20.8654 55.7935 20.601 55.3618C20.3131 54.9139 19.947 54.52 19.5197 54.1983C19.1483 53.8967 18.7513 53.627 18.3332 53.3924C17.8013 53.0866 17.215 52.8839 16.606 52.7954L14.1111 52.3776C13.2906 52.2391 12.6598 52.3634 12.2189 52.7505C11.778 53.1376 11.5564 53.809 11.5542 54.7648C11.5542 55.84 11.8695 56.6656 12.5003 57.2415C13.131 57.8175 14.0376 58.2057 15.2201 58.4061L17.0226 58.7047C17.2257 58.7477 17.4315 58.7777 17.6386 58.7943C17.869 58.814 18.1149 58.8238 18.3742 58.8238C19.1128 58.8042 19.7339 58.65 20.2376 58.3613C20.7413 58.0726 20.9932 57.5503 20.9932 56.7943L20.9921 56.7943Z" fill="black"/>
<path d="M19.5109 13.9684L14.7637 4.29855L14.5222 4.26903L9.77498 12.3861L5.81437 11.73L12.7407 -5.56915e-07L16.9129 0.686721L23.898 14.6835L19.5109 13.9684Z" fill="black"/>
</svg>
