<svg width="256" height="593" viewBox="0 0 256 593" fill="none" xmlns="http://www.w3.org/2000/svg">
<path d="M95.1775 210.998C89.2556 250.559 81.2494 309.27 80.8855 328.421H82.5397L208.455 328.653H210.77C210.076 315.996 209.05 314.837 208.19 296.05L178.647 297.541C194.427 295.487 216.593 284.918 232.771 271.333C244.581 261.393 253.249 249.929 253.944 238.996C254.54 229.917 250.272 222.794 246.335 214.676C241.405 204.438 212.788 167.13 205.808 161.365C197.736 154.739 170.806 150.763 170.806 150.763C169.714 148.046 169.152 145.594 166.505 143.971C166.337 143.875 166.16 143.797 165.976 143.739C154.987 141.289 143.613 141.131 132.562 143.275C132.072 143.405 131.604 143.606 131.172 143.871C129.898 144.567 128.806 145.553 127.984 146.751C127.162 147.948 126.633 149.323 126.441 150.763C126.441 150.763 110.131 150.133 100.305 155.501C86.2652 163.877 73.0693 173.597 60.9032 184.525C60.4503 171.254 60.9368 157.968 62.3589 144.766L45.8172 143.54H45.3541C39.366 163.95 26.1658 212.489 33.9403 220.209C39.7961 226.206 90.1819 212.721 95.1775 210.998ZM193.038 209.64C194.626 211.297 196.346 212.953 197.736 214.676C204.715 222.193 211.233 230.126 217.255 238.432C223.507 248.935 178.481 276.469 167.63 279.086C167.63 279.086 167.63 279.848 167.63 281.074C167.861 285.68 168.722 296.779 171.699 297.641C169.714 300.258 156.018 309.834 150.79 310.695C143.148 312.02 133.753 304.466 128.062 299.827C124.782 299.999 121.567 298.861 119.124 296.662C116.68 294.463 115.207 291.383 115.027 288.098L111.951 226.074C111.798 222.785 112.95 219.57 115.157 217.13C117.364 214.69 120.446 213.224 123.728 213.053L193.038 209.64Z" fill="black"/>
<path d="M89.4213 571.351C82.4738 572.146 75.9233 576.023 77.5444 584.869V584.803H131.04C129.551 576.089 136.069 572.246 142.983 571.55C146.469 571.102 149.911 570.359 153.272 569.33V568.899C153.272 568.303 153.272 565.188 153.272 560.053H123.762C121.082 560.483 103.846 569.628 89.4213 571.351Z" fill="black"/>
<path d="M142.983 571.352C136.068 572.147 129.551 575.99 131.04 584.605V584.804H207.131C207.131 582.484 207.131 573.539 207.33 559.954H176.992C174.974 560.385 164.321 565.885 152.974 569.165C149.709 570.167 146.367 570.898 142.983 571.352Z" fill="black"/>
<path d="M126.044 83.8348C126.066 84.1703 126.208 84.4866 126.444 84.7253C126.681 84.964 126.996 85.1088 127.33 85.133C127.665 85.1573 127.998 85.0593 128.266 84.8572C128.534 84.6551 128.72 84.3625 128.79 84.0336C128.818 83.6696 128.701 83.3093 128.466 83.0304C128.231 82.7515 127.896 82.5763 127.533 82.5426C127.35 82.5291 127.167 82.5518 126.993 82.6095C126.819 82.6672 126.659 82.7587 126.52 82.8788C126.382 82.9989 126.269 83.1451 126.187 83.3092C126.105 83.4733 126.057 83.6519 126.044 83.8348Z" fill="black"/>
<path d="M144.207 84.2987C144.189 84.6659 144.313 85.0262 144.553 85.3041C144.793 85.5819 145.132 85.7559 145.498 85.7897C145.861 85.8079 146.217 85.6828 146.489 85.4412C146.761 85.1996 146.928 84.8608 146.953 84.4975C146.971 84.3181 146.953 84.1369 146.899 83.9649C146.844 83.7929 146.756 83.6338 146.638 83.4974C146.52 83.3609 146.376 83.2499 146.214 83.1712C146.052 83.0925 145.876 83.0477 145.696 83.0396C145.333 83.012 144.973 83.1285 144.694 83.364C144.416 83.5995 144.241 83.9352 144.207 84.2987Z" fill="black"/>
<path d="M177.688 194.896C183.099 199.493 188.226 204.417 193.038 209.64C194.626 211.297 196.347 212.953 197.736 214.676C204.715 222.193 211.234 230.126 217.255 238.432C223.508 248.935 178.482 276.469 167.63 279.086C167.63 279.086 167.63 279.848 167.63 281.074C167.862 285.68 168.722 296.779 171.7 297.641H172.064C174.208 297.688 176.353 297.577 178.482 297.309C194.262 295.255 216.428 284.686 232.606 271.101C244.417 261.161 253.085 249.697 253.779 238.764C254.375 229.685 250.107 222.562 246.17 214.444C241.241 204.206 212.624 166.899 205.643 161.133C197.736 154.739 170.806 150.763 170.806 150.763C169.715 148.046 169.152 145.594 166.506 143.971C166.338 143.875 166.16 143.797 165.976 143.739C154.988 141.289 143.614 141.131 132.562 143.275C132.072 143.405 131.604 143.606 131.173 143.871C129.899 144.567 128.807 145.553 127.985 146.751C127.163 147.948 126.634 149.323 126.442 150.763C126.442 150.763 110.132 150.133 100.306 155.501C86.2658 163.877 73.07 173.597 60.9039 184.525C58.9189 186.248 56.967 187.838 55.0481 189.76" stroke="black" stroke-width="2.6488" stroke-linecap="round" stroke-linejoin="round"/>
<path d="M128.062 299.861C133.753 304.5 143.148 312.054 150.791 310.729C156.018 309.867 169.714 300.292 171.699 297.674C171.802 297.54 171.89 297.396 171.964 297.244" stroke="black" stroke-width="2.6488" stroke-miterlimit="10"/>
<path d="M208.19 296.051C209.05 314.837 210.076 315.931 210.771 328.654H208.455L82.5398 328.422H80.8856C81.2495 309.271 89.2557 250.56 95.1776 210.999C96.6994 200.893 98.0558 192.047 99.1476 185.42" stroke="black" stroke-width="2.6488" stroke-linecap="round" stroke-linejoin="round"/>
<path d="M95.4758 210.899H95.1781C90.1825 212.622 39.7967 226.107 33.8086 220.143C26.0341 212.423 39.2343 163.817 45.2224 143.474H45.5532L62.0948 144.7C60.6728 157.902 60.1863 171.188 60.6392 184.459" stroke="black" stroke-width="2.6488" stroke-miterlimit="10"/>
<path d="M128.889 299.862H129.253C135.308 300.16 146.126 300.194 149.368 297.344C151.353 295.588 151.452 288.266 148.144 286.841C145.861 285.847 141.263 284.29 139.641 283.329C139.003 283.016 138.481 282.506 138.155 281.873C137.829 281.24 137.715 280.519 137.83 279.816C137.945 279.113 138.283 278.466 138.794 277.971C139.305 277.476 139.962 277.159 140.667 277.067C143.231 276.836 145.811 276.836 148.375 277.067C153.338 277.663 161.146 282.534 167.696 281.076" stroke="black" stroke-width="2.6488" stroke-miterlimit="10"/>
<path d="M163.726 72.0075C163.329 69.2244 162.899 65.9442 162.27 62.6309C161.524 57.1557 159.407 51.9584 156.117 47.5224C148.541 39.0404 140.402 42.2211 133.488 49.3447C131.504 51.4033 129.689 53.6194 128.062 55.9712C123.115 63.0647 119.309 70.8906 116.781 79.1642C113.87 90.6613 130.014 116.472 134.679 118.327C135.235 118.547 135.811 118.714 136.399 118.824C143.214 120.083 151.882 113.987 154.794 107.99" stroke="black" stroke-width="2.6488" stroke-miterlimit="10" stroke-linecap="round"/>
<path d="M166.075 143.54C166.075 123.892 167.133 106.1 165.479 86.5186" stroke="black" stroke-width="2.6488" stroke-miterlimit="10"/>
<path d="M136.565 118.128C136.494 118.389 136.438 118.655 136.4 118.923C134.712 126.875 134.249 136.715 131.139 143.806" stroke="black" stroke-width="2.6488" stroke-miterlimit="10"/>
<path d="M161.014 75.4527C161.821 74.2341 162.777 73.1211 163.859 72.1394C171.6 65.5128 176.728 80.2569 173.519 84.4648C172.516 85.5081 171.227 86.2313 169.814 86.5437C168.402 86.8561 166.928 86.7438 165.579 86.2209C164.943 86.0589 164.332 85.8138 163.76 85.4919" stroke="black" stroke-width="2.6488" stroke-miterlimit="10" stroke-linecap="round"/>
<path d="M128.261 56.0706C126.408 55.8718 100.702 50.6699 104.375 43.4801C106.492 39.3385 120.089 43.712 133.687 49.3446C146.589 54.7121 159.491 61.2062 162.469 62.5977L162.932 62.8297" stroke="black" stroke-width="2.6488" stroke-miterlimit="10"/>
<path d="M143.082 76.9097C144.434 76.4958 145.864 76.4091 147.256 76.6568C148.648 76.9044 149.961 77.4794 151.088 78.3344" stroke="black" stroke-width="2.6488" stroke-miterlimit="10" stroke-linecap="round"/>
<path d="M165.314 78.1365C166.727 79.4289 168.562 80.1595 170.475 80.1907" stroke="black" stroke-width="2.6488" stroke-miterlimit="10" stroke-linecap="round"/>
<path d="M124.952 77.4067C127.103 76.4127 132.065 76.7109 132.958 78.8645C134.381 82.1778 132.264 89.5333 131.337 93.6749C130.742 96.4912 129.749 101.991 134.646 100.5" stroke="black" stroke-width="2.6488" stroke-miterlimit="10" stroke-linecap="round"/>
<path d="M141.494 107.69C140.905 108.322 140.183 108.815 139.381 109.133C138.578 109.451 137.715 109.586 136.854 109.529C135.992 109.472 135.155 109.224 134.401 108.803C133.647 108.381 132.996 107.798 132.495 107.094" stroke="black" stroke-width="2.6488" stroke-miterlimit="10" stroke-linecap="round"/>
<path d="M154.099 479.575C153.768 514.927 153.338 545.41 153.206 559.856C153.206 564.991 153.206 568.106 153.206 568.702" stroke="black" stroke-width="2.6488" stroke-miterlimit="10"/>
<path d="M186.984 339.223C186.587 353.536 196.478 362.118 208.752 365.53C212.11 366.457 215.562 367.002 219.041 367.154" stroke="black" stroke-width="2.6488" stroke-miterlimit="10" stroke-linecap="round"/>
<path d="M131.239 584.803L207.33 585.168C207.33 585.168 207.33 584.903 207.33 584.637C207.33 582.318 207.33 573.372 207.529 559.788C207.959 518.571 208.951 434.745 208.654 365.464C208.654 352.542 208.654 340.117 208.356 328.587" stroke="black" stroke-width="2.6488" stroke-linecap="round" stroke-linejoin="round"/>
<path d="M135.639 355.956C137.454 397.694 143.687 439.121 154.231 479.541C161.212 507.737 169.317 534.641 177.125 559.524V559.855C175.107 560.286 164.454 565.786 153.107 569.066C149.746 570.096 146.304 570.838 142.818 571.286C135.903 572.081 129.386 575.925 130.875 584.539C130.887 584.594 130.887 584.65 130.875 584.705" stroke="black" stroke-width="2.6488" stroke-linecap="round" stroke-linejoin="round"/>
<path d="M82.5399 329.052C84.5911 420.465 104.573 499.023 123.696 559.855C121.016 560.418 103.846 569.563 89.3551 571.286C82.4076 572.081 75.8571 575.957 77.4782 584.804H131.569" stroke="black" stroke-width="2.6488" stroke-linecap="round" stroke-linejoin="round"/>
<path d="M122.471 559.855H123.695H152.709" stroke="black" stroke-width="2.6488" stroke-miterlimit="10"/>
<path d="M177.257 559.855H177.29H207.495" stroke="black" stroke-width="2.6488" stroke-miterlimit="10"/>
<path d="M207.429 584.705H207.594V591H131.238V584.903V584.705H207.429Z" stroke="black" stroke-width="2.6488" stroke-linecap="round" stroke-linejoin="round"/>
<path d="M131.106 584.903V591H77.677V584.903V584.705H131.04H131.106V584.903Z" stroke="black" stroke-width="2.6488" stroke-linecap="round" stroke-linejoin="round"/>
<path d="M178.614 297.442L208.157 295.951L221.589 295.289C224.872 295.117 227.953 293.651 230.16 291.211C232.367 288.772 233.52 285.556 233.367 282.268L232.804 271.301" stroke="black" stroke-width="2.6488" stroke-miterlimit="10"/>
<path d="M193.534 209.607H193.038L123.894 212.92C120.611 213.092 117.53 214.557 115.323 216.997C113.116 219.437 111.963 222.653 112.116 225.941L115.028 288.098C115.112 289.746 115.522 291.36 116.236 292.846C116.949 294.333 117.951 295.662 119.183 296.757C120.414 297.852 121.851 298.69 123.41 299.223C124.969 299.756 126.618 299.973 128.261 299.861V299.861H129.32H130.147" stroke="black" stroke-width="2.6488" stroke-miterlimit="10"/>
<path d="M197.736 214.709L128.261 218.022C125.344 218.16 122.601 219.451 120.634 221.613C118.668 223.775 117.639 226.631 117.774 229.552L120.453 284.42L121.115 297.309" stroke="black" stroke-width="2.6488" stroke-miterlimit="10"/>
<path d="M62.6236 144.766C68.4132 144.07 78.1066 129.492 67.8177 123.76C66.4911 123.059 65.0785 122.535 63.6161 122.202C62.6567 122.004 61.4326 121.672 60.3078 121.473C57.5619 121.01 54.5182 121.076 53.4926 123.627C53.1434 124.248 53.0518 124.981 53.2374 125.669C53.4231 126.357 53.8711 126.945 54.4851 127.305C55.84 127.926 57.2606 128.393 58.7198 128.696C60.5063 129.094 62.0281 130.452 61.4988 130.552C60.4417 130.852 59.4707 131.399 58.6656 132.147C57.8604 132.896 57.2441 133.825 56.8671 134.859C56.5107 135.593 56.2228 136.358 56.007 137.145" stroke="black" stroke-width="2.6488" stroke-miterlimit="10" stroke-linecap="round"/>
<path d="M68.0827 123.329C69.4722 119.254 74.8978 95.3653 70.1338 94.2056C65.3699 93.046 64.7082 102.721 61.9954 114.085C61.466 116.305 60.9036 118.625 60.2089 120.944" stroke="black" stroke-width="2.6488" stroke-miterlimit="10" stroke-linecap="round"/>
<path d="M62.0944 114.317C62.4583 109.943 55.4778 109.48 54.2206 112.693C53.713 113.864 53.2927 115.072 52.9634 116.305C51.1769 122.368 50.9784 129.16 52.7649 132.606C53.031 133.311 53.5144 133.913 54.145 134.324C54.7756 134.735 55.5205 134.934 56.2718 134.892" stroke="black" stroke-width="2.6488" stroke-miterlimit="10" stroke-linecap="round"/>
<path d="M52.7985 116.207C53.2286 111.601 47.2405 110.243 46.1818 114.384C43.866 123.463 44.263 129.493 45.8179 132.309C46.0686 132.777 46.4053 133.193 46.8104 133.535C47.6267 134.096 48.6321 134.311 49.6059 134.131C50.5797 133.95 51.4423 133.391 52.0045 132.574" stroke="black" stroke-width="2.6488" stroke-miterlimit="10" stroke-linecap="round"/>
<path d="M45.5527 143.508C44.5769 139.861 44.5769 136.022 45.5527 132.375" stroke="black" stroke-width="2.6488" stroke-miterlimit="10" stroke-linecap="round"/>
<path d="M211.565 247.146C198.332 261.393 174.048 276.369 166.142 278.291C166.142 278.291 166.572 299.364 171.17 299.562C184.404 300.093 205.511 292.638 223.541 281.273" stroke="white" stroke-width="2.6488" stroke-linecap="round" stroke-linejoin="round"/>
<path d="M176.298 560.119C171.666 561.875 156.448 569.661 143.215 571.219C136.267 572.014 131.205 574.532 131.305 585.665" stroke="white" stroke-width="2.6488" stroke-linejoin="round"/>
<path d="M57.9829 21.5398H21.9067C17.2291 21.5398 13.4373 25.3374 13.4373 30.0219V46.3365C13.4373 51.0211 17.2291 54.8186 21.9067 54.8186H57.9829C62.6604 54.8186 66.4524 51.0211 66.4524 46.3365V30.0219C66.4524 25.3374 62.6604 21.5398 57.9829 21.5398Z" stroke="black" stroke-width="2.6488" stroke-linecap="round" stroke-linejoin="round"/>
<path d="M17.3298 23.742L39.9631 45.2902L63.6775 22.6592" stroke="black" stroke-width="2.6488" stroke-linecap="round" stroke-linejoin="round"/>
<path d="M15.8518 52.6163L30.9166 36.9153" stroke="black" stroke-width="2.6488" stroke-linecap="round" stroke-linejoin="round"/>
<path d="M63.7127 51.8944L49.3687 36.9153" stroke="black" stroke-width="2.6488" stroke-linecap="round" stroke-linejoin="round"/>
<path d="M28.5976 72.4322H72.3864C74.5009 72.5408 76.5727 71.8094 78.1518 70.3969C79.7309 68.9844 80.6897 67.0049 80.8198 64.8885V9.55613C80.699 7.43627 79.7429 5.45112 78.1617 4.0367C76.5804 2.62227 74.5033 1.89422 72.3864 2.01244H10.4333C8.31649 1.89422 6.23934 2.62227 4.65809 4.0367C3.07684 5.45112 2.12081 7.43627 1.99995 9.55613V64.8885C2.13009 67.0049 3.08884 68.9844 4.66793 70.3969C6.24702 71.8094 8.31887 72.5408 10.4333 72.4322H18.8307" stroke="black" stroke-width="2.6488" stroke-linecap="round" stroke-linejoin="round"/>
<path d="M18.5784 67.9561C18.5784 67.9561 20.6688 84.6316 24.9576 87.8801C29.2463 91.1286 28.1651 64.8159 28.1651 64.8159" stroke="black" stroke-width="2.6488" stroke-linecap="round" stroke-linejoin="round"/>
<path d="M60.7947 27.5316C65.93 27.5316 70.093 23.3623 70.093 18.2193C70.093 13.0762 65.93 8.90698 60.7947 8.90698C55.6593 8.90698 51.4963 13.0762 51.4963 18.2193C51.4963 23.3623 55.6593 27.5316 60.7947 27.5316Z" fill="white"/>
<path d="M60.6856 6.63354C58.3833 6.63354 56.1326 7.3173 54.2183 8.59834C52.3039 9.87939 50.8118 11.7002 49.9308 13.8305C49.0497 15.9608 48.8192 18.3049 49.2684 20.5664C49.7175 22.8279 50.8262 24.9053 52.4542 26.5357C54.0822 28.1662 56.1565 29.2765 58.4146 29.7264C60.6727 30.1762 63.0133 29.9453 65.1404 29.0629C67.2676 28.1805 69.0856 26.6863 70.3648 24.769C71.6439 22.8518 72.3266 20.5978 72.3266 18.292C72.3266 15.2 71.1002 12.2346 68.9171 10.0482C66.734 7.86184 63.773 6.63354 60.6856 6.63354ZM62.6678 23.8866C62.6678 24.0904 62.6278 24.2922 62.5499 24.4805C62.472 24.6688 62.3578 24.8399 62.2139 24.984C62.07 25.1282 61.8992 25.2425 61.7112 25.3205C61.5232 25.3985 61.3217 25.4386 61.1181 25.4386C60.7037 25.4387 60.3058 25.2764 60.0094 24.9863C59.713 24.6962 59.5418 24.3015 59.5324 23.8866V16.9926L59.3522 17.2813C59.243 17.4564 59.1 17.608 58.9316 17.7271C58.7632 17.8462 58.5728 17.9304 58.3715 17.9749C58.1702 18.0194 57.9621 18.0232 57.7593 17.9861C57.5565 17.949 57.3632 17.8718 57.1905 17.7589C57.0179 17.6461 56.8695 17.4999 56.754 17.3289C56.6385 17.1579 56.5582 16.9655 56.5179 16.7631C56.4775 16.5606 56.4779 16.3521 56.519 16.1498C56.5601 15.9475 56.6411 15.7555 56.7573 15.5849L59.8207 10.9288C59.9978 10.6462 60.265 10.4318 60.579 10.3204C60.893 10.209 61.2354 10.2072 61.5506 10.3152C61.8711 10.4084 62.153 10.6029 62.3543 10.8695C62.5556 11.1361 62.6656 11.4607 62.6678 11.795V23.8866Z" fill="black"/>
</svg>
