<svg width="256" height="593" viewBox="0 0 256 593" fill="none" xmlns="http://www.w3.org/2000/svg">
<g opacity="0.13">
<path d="M95.1775 210.998C89.2556 250.559 81.2494 309.27 80.8855 328.421H82.5397L208.455 328.653H210.77C210.076 315.996 209.05 314.837 208.19 296.05L178.647 297.541C194.427 295.487 216.593 284.918 232.771 271.333C244.581 261.393 253.249 249.929 253.944 238.996C254.54 229.917 250.272 222.794 246.335 214.676C241.405 204.438 212.788 167.13 205.808 161.365C197.736 154.739 170.806 150.763 170.806 150.763C169.714 148.046 169.152 145.594 166.505 143.971C166.337 143.875 166.16 143.797 165.976 143.739C154.987 141.289 143.613 141.131 132.562 143.275C132.072 143.405 131.604 143.606 131.172 143.871C129.898 144.567 128.806 145.553 127.984 146.751C127.162 147.948 126.633 149.323 126.441 150.763C126.441 150.763 110.131 150.133 100.305 155.501C86.2652 163.877 73.0693 173.597 60.9032 184.525C60.4503 171.254 60.9368 157.968 62.3589 144.766L45.8172 143.54H45.3541C39.366 163.95 26.1658 212.489 33.9403 220.209C39.7961 226.206 90.1819 212.721 95.1775 210.998ZM193.038 209.64C194.626 211.297 196.346 212.953 197.736 214.676C204.715 222.193 211.233 230.126 217.255 238.432C223.507 248.935 178.481 276.469 167.63 279.086C167.63 279.086 167.63 279.848 167.63 281.074C167.861 285.68 168.722 296.779 171.699 297.641C169.714 300.258 156.018 309.834 150.79 310.695C143.148 312.02 133.753 304.466 128.062 299.827C124.782 299.999 121.567 298.861 119.124 296.662C116.68 294.463 115.207 291.383 115.027 288.098L111.951 226.074C111.798 222.785 112.95 219.57 115.157 217.13C117.364 214.69 120.446 213.224 123.728 213.053L193.038 209.64Z" fill="black"/>
<path d="M89.4214 571.351C82.4739 572.146 75.9234 576.023 77.5445 584.869V584.803H131.04C129.551 576.089 136.069 572.246 142.983 571.55C146.469 571.102 149.911 570.359 153.272 569.33V568.899C153.272 568.303 153.272 565.188 153.272 560.053H123.762C121.082 560.483 103.846 569.628 89.4214 571.351Z" fill="black"/>
<path d="M142.983 571.352C136.068 572.147 129.551 575.99 131.04 584.605V584.804H207.131C207.131 582.484 207.131 573.539 207.33 559.954H176.992C174.974 560.385 164.321 565.885 152.974 569.165C149.709 570.167 146.367 570.898 142.983 571.352Z" fill="black"/>
<path d="M126.044 83.8345C126.066 84.1701 126.208 84.4864 126.445 84.7251C126.681 84.9637 126.996 85.1085 127.331 85.1328C127.665 85.157 127.998 85.059 128.266 84.8569C128.534 84.6548 128.72 84.3623 128.79 84.0333C128.818 83.6694 128.701 83.3091 128.466 83.0302C128.231 82.7513 127.896 82.5761 127.533 82.5424C127.35 82.5288 127.167 82.5516 126.993 82.6093C126.819 82.667 126.659 82.7585 126.52 82.8786C126.382 82.9986 126.269 83.1449 126.187 83.309C126.105 83.473 126.057 83.6516 126.044 83.8345Z" fill="black"/>
<path d="M144.207 84.2987C144.189 84.6659 144.313 85.0262 144.553 85.3041C144.793 85.5819 145.132 85.7559 145.498 85.7897C145.861 85.8079 146.217 85.6828 146.489 85.4412C146.761 85.1996 146.928 84.8608 146.953 84.4975C146.971 84.3181 146.953 84.1369 146.899 83.9649C146.844 83.7929 146.756 83.6338 146.638 83.4974C146.52 83.3609 146.376 83.2499 146.214 83.1712C146.052 83.0925 145.876 83.0477 145.696 83.0396C145.333 83.012 144.973 83.1285 144.694 83.364C144.416 83.5995 144.241 83.9352 144.207 84.2987Z" fill="black"/>
<path d="M177.688 194.896C183.099 199.493 188.226 204.417 193.038 209.64C194.626 211.297 196.347 212.953 197.736 214.676C204.715 222.193 211.234 230.126 217.255 238.432C223.508 248.935 178.482 276.469 167.63 279.086C167.63 279.086 167.63 279.848 167.63 281.074C167.862 285.68 168.722 296.779 171.7 297.641H172.064C174.208 297.688 176.353 297.577 178.482 297.309C194.262 295.255 216.428 284.686 232.606 271.101C244.417 261.161 253.085 249.697 253.779 238.764C254.375 229.685 250.107 222.562 246.17 214.444C241.241 204.206 212.624 166.899 205.643 161.133C197.736 154.739 170.806 150.763 170.806 150.763C169.715 148.046 169.152 145.594 166.506 143.971C166.338 143.875 166.16 143.797 165.976 143.739C154.988 141.289 143.614 141.131 132.562 143.275C132.072 143.405 131.604 143.606 131.173 143.871C129.899 144.567 128.807 145.553 127.985 146.751C127.163 147.948 126.634 149.323 126.442 150.763C126.442 150.763 110.132 150.133 100.306 155.501C86.2658 163.877 73.07 173.597 60.9039 184.525C58.9189 186.248 56.967 187.838 55.0481 189.76" stroke="black" stroke-width="2.6488" stroke-linecap="round" stroke-linejoin="round"/>
<path d="M128.062 299.861C133.753 304.5 143.148 312.054 150.791 310.729C156.018 309.867 169.714 300.292 171.699 297.674C171.802 297.54 171.89 297.396 171.964 297.244" stroke="black" stroke-width="2.6488" stroke-miterlimit="10"/>
<path d="M208.19 296.051C209.05 314.837 210.076 315.931 210.771 328.654H208.455L82.5398 328.422H80.8856C81.2495 309.271 89.2557 250.56 95.1776 210.999C96.6994 200.893 98.0558 192.047 99.1476 185.42" stroke="black" stroke-width="2.6488" stroke-linecap="round" stroke-linejoin="round"/>
<path d="M95.4757 210.899H95.178C90.1824 212.622 39.7966 226.107 33.8085 220.143C26.0339 212.423 39.2342 163.817 45.2222 143.474H45.5531L62.0947 144.7C60.6726 157.902 60.1862 171.188 60.639 184.459" stroke="black" stroke-width="2.6488" stroke-miterlimit="10"/>
<path d="M128.889 299.862H129.253C135.307 300.16 146.126 300.194 149.368 297.344C151.353 295.588 151.452 288.266 148.144 286.841C145.861 285.847 141.262 284.29 139.641 283.329C139.002 283.016 138.481 282.506 138.155 281.873C137.829 281.24 137.715 280.519 137.83 279.816C137.945 279.113 138.283 278.466 138.794 277.971C139.305 277.476 139.962 277.159 140.667 277.067C143.231 276.836 145.811 276.836 148.375 277.067C153.338 277.663 161.145 282.534 167.696 281.076" stroke="black" stroke-width="2.6488" stroke-miterlimit="10"/>
<path d="M163.726 72.0078C163.329 69.2246 162.899 65.9445 162.27 62.6312C161.524 57.1559 159.407 51.9586 156.117 47.5226C148.541 39.0406 140.402 42.2214 133.488 49.3449C131.504 51.4035 129.689 53.6196 128.062 55.9715C123.115 63.0649 119.309 70.8908 116.781 79.1645C113.87 90.6616 130.014 116.472 134.679 118.327C135.235 118.547 135.811 118.714 136.399 118.824C143.214 120.084 151.882 113.987 154.794 107.99" stroke="black" stroke-width="2.6488" stroke-miterlimit="10" stroke-linecap="round"/>
<path d="M166.075 143.54C166.075 123.892 167.133 106.1 165.479 86.5186" stroke="black" stroke-width="2.6488" stroke-miterlimit="10"/>
<path d="M136.565 118.127C136.494 118.389 136.438 118.654 136.4 118.923C134.712 126.875 134.249 136.715 131.139 143.805" stroke="black" stroke-width="2.6488" stroke-miterlimit="10"/>
<path d="M161.014 75.4527C161.821 74.2341 162.777 73.1211 163.859 72.1394C171.6 65.5128 176.728 80.2569 173.519 84.4648C172.516 85.5081 171.227 86.2313 169.814 86.5437C168.402 86.8561 166.928 86.7438 165.579 86.2209C164.943 86.0589 164.332 85.8138 163.76 85.4919" stroke="black" stroke-width="2.6488" stroke-miterlimit="10" stroke-linecap="round"/>
<path d="M128.261 56.0706C126.408 55.8718 100.702 50.6699 104.375 43.4801C106.492 39.3385 120.089 43.712 133.687 49.3446C146.589 54.7121 159.491 61.2062 162.469 62.5977L162.932 62.8297" stroke="black" stroke-width="2.6488" stroke-miterlimit="10"/>
<path d="M143.082 76.9095C144.434 76.4955 145.864 76.4088 147.256 76.6565C148.648 76.9042 149.961 77.4792 151.088 78.3342" stroke="black" stroke-width="2.6488" stroke-miterlimit="10" stroke-linecap="round"/>
<path d="M165.314 78.1362C166.727 79.4287 168.562 80.1593 170.475 80.1905" stroke="black" stroke-width="2.6488" stroke-miterlimit="10" stroke-linecap="round"/>
<path d="M124.952 77.4067C127.103 76.4127 132.065 76.7109 132.958 78.8645C134.381 82.1778 132.264 89.5333 131.337 93.6749C130.742 96.4912 129.749 101.991 134.646 100.5" stroke="black" stroke-width="2.6488" stroke-miterlimit="10" stroke-linecap="round"/>
<path d="M141.494 107.69C140.905 108.322 140.183 108.815 139.381 109.133C138.578 109.451 137.715 109.586 136.854 109.529C135.992 109.472 135.155 109.224 134.401 108.803C133.647 108.382 132.996 107.798 132.496 107.094" stroke="black" stroke-width="2.6488" stroke-miterlimit="10" stroke-linecap="round"/>
<path d="M154.099 479.575C153.768 514.927 153.338 545.41 153.206 559.856C153.206 564.991 153.206 568.106 153.206 568.702" stroke="black" stroke-width="2.6488" stroke-miterlimit="10"/>
<path d="M186.984 339.223C186.587 353.536 196.478 362.117 208.752 365.53C212.11 366.457 215.562 367.002 219.041 367.154" stroke="black" stroke-width="2.6488" stroke-miterlimit="10" stroke-linecap="round"/>
<path d="M131.239 584.803L207.33 585.168C207.33 585.168 207.33 584.903 207.33 584.637C207.33 582.318 207.33 573.372 207.529 559.788C207.959 518.571 208.951 434.745 208.654 365.464C208.654 352.542 208.654 340.117 208.356 328.587" stroke="black" stroke-width="2.6488" stroke-linecap="round" stroke-linejoin="round"/>
<path d="M135.639 355.956C137.454 397.694 143.687 439.121 154.231 479.542C161.212 507.738 169.317 534.641 177.125 559.524V559.856C175.107 560.286 164.454 565.786 153.107 569.066C149.746 570.096 146.304 570.838 142.818 571.286C135.903 572.082 129.386 575.925 130.875 584.54C130.887 584.594 130.887 584.651 130.875 584.705" stroke="black" stroke-width="2.6488" stroke-linecap="round" stroke-linejoin="round"/>
<path d="M82.5399 329.052C84.5911 420.465 104.573 499.023 123.696 559.855C121.016 560.418 103.846 569.563 89.3551 571.286C82.4076 572.081 75.8571 575.958 77.4782 584.804H131.569" stroke="black" stroke-width="2.6488" stroke-linecap="round" stroke-linejoin="round"/>
<path d="M122.471 559.855H123.695H152.709" stroke="black" stroke-width="2.6488" stroke-miterlimit="10"/>
<path d="M177.257 559.855H177.29H207.495" stroke="black" stroke-width="2.6488" stroke-miterlimit="10"/>
<path d="M207.429 584.705H207.594V591H131.238V584.903V584.705H207.429Z" stroke="black" stroke-width="2.6488" stroke-linecap="round" stroke-linejoin="round"/>
<path d="M131.106 584.903V591H77.677V584.903V584.705H131.04H131.106V584.903Z" stroke="black" stroke-width="2.6488" stroke-linecap="round" stroke-linejoin="round"/>
<path d="M178.614 297.442L208.157 295.951L221.589 295.288C224.872 295.117 227.953 293.651 230.16 291.211C232.367 288.771 233.52 285.556 233.367 282.267L232.804 271.3" stroke="black" stroke-width="2.6488" stroke-miterlimit="10"/>
<path d="M193.534 209.607H193.038L123.894 212.92C120.611 213.092 117.53 214.558 115.323 216.997C113.116 219.437 111.963 222.653 112.116 225.941L115.028 288.099C115.112 289.746 115.522 291.36 116.236 292.847C116.949 294.333 117.951 295.663 119.183 296.758C120.414 297.852 121.851 298.691 123.41 299.223C124.969 299.756 126.618 299.973 128.261 299.861V299.861H129.32H130.147" stroke="black" stroke-width="2.6488" stroke-miterlimit="10"/>
<path d="M197.736 214.709L128.261 218.022C125.344 218.16 122.601 219.451 120.634 221.613C118.668 223.775 117.639 226.631 117.774 229.552L120.453 284.42L121.115 297.309" stroke="black" stroke-width="2.6488" stroke-miterlimit="10"/>
<path d="M62.6235 144.766C68.4131 144.07 78.1065 129.492 67.8176 123.76C66.491 123.059 65.0784 122.536 63.616 122.203C62.6566 122.004 61.4325 121.672 60.3077 121.474C57.5618 121.01 54.5181 121.076 53.4925 123.627C53.1433 124.248 53.0516 124.982 53.2373 125.67C53.4229 126.357 53.871 126.945 54.485 127.305C55.8399 127.927 57.2604 128.393 58.7197 128.697C60.5062 129.094 62.028 130.453 61.4987 130.552C60.4416 130.852 59.4706 131.399 58.6654 132.148C57.8603 132.896 57.2439 133.826 56.867 134.859C56.5106 135.593 56.2227 136.359 56.0069 137.145" stroke="black" stroke-width="2.6488" stroke-miterlimit="10" stroke-linecap="round"/>
<path d="M68.0828 123.33C69.4723 119.254 74.898 95.3655 70.134 94.2059C65.37 93.0462 64.7083 102.721 61.9955 114.086C61.4662 116.305 60.9037 118.625 60.209 120.944" stroke="black" stroke-width="2.6488" stroke-miterlimit="10" stroke-linecap="round"/>
<path d="M62.0944 114.317C62.4583 109.943 55.4778 109.48 54.2206 112.693C53.713 113.864 53.2927 115.072 52.9634 116.305C51.1769 122.368 50.9784 129.16 52.7649 132.606C53.031 133.311 53.5144 133.913 54.145 134.324C54.7756 134.735 55.5205 134.934 56.2718 134.892" stroke="black" stroke-width="2.6488" stroke-miterlimit="10" stroke-linecap="round"/>
<path d="M52.7985 116.206C53.2286 111.601 47.2405 110.242 46.1818 114.384C43.866 123.462 44.263 129.493 45.8179 132.309C46.0686 132.777 46.4053 133.192 46.8104 133.535C47.6267 134.096 48.6321 134.31 49.6059 134.13C50.5797 133.95 51.4423 133.39 52.0045 132.574" stroke="black" stroke-width="2.6488" stroke-miterlimit="10" stroke-linecap="round"/>
<path d="M45.5529 143.508C44.5771 139.861 44.5771 136.022 45.5529 132.375" stroke="black" stroke-width="2.6488" stroke-miterlimit="10" stroke-linecap="round"/>
<path d="M211.565 247.146C198.332 261.394 174.048 276.37 166.142 278.291C166.142 278.291 166.572 299.364 171.17 299.563C184.404 300.093 205.511 292.638 223.541 281.273" stroke="white" stroke-width="2.6488" stroke-linecap="round" stroke-linejoin="round"/>
<path d="M176.298 560.119C171.666 561.875 156.448 569.661 143.215 571.219C136.267 572.014 131.205 574.532 131.305 585.665" stroke="white" stroke-width="2.6488" stroke-linejoin="round"/>
<path d="M57.9829 21.54H21.9067C17.2291 21.54 13.4373 25.3376 13.4373 30.0222V46.3367C13.4373 51.0213 17.2291 54.8189 21.9067 54.8189H57.9829C62.6604 54.8189 66.4524 51.0213 66.4524 46.3367V30.0222C66.4524 25.3376 62.6604 21.54 57.9829 21.54Z" stroke="black" stroke-width="2.6488" stroke-linecap="round" stroke-linejoin="round"/>
<path d="M17.3298 23.742L39.9631 45.2902L63.6775 22.6592" stroke="black" stroke-width="2.6488" stroke-linecap="round" stroke-linejoin="round"/>
<path d="M15.8518 52.616L30.9166 36.915" stroke="black" stroke-width="2.6488" stroke-linecap="round" stroke-linejoin="round"/>
<path d="M63.7127 51.8941L49.3687 36.915" stroke="black" stroke-width="2.6488" stroke-linecap="round" stroke-linejoin="round"/>
<path d="M28.5976 72.4322H72.3864C74.5009 72.5408 76.5727 71.8094 78.1518 70.3969C79.7309 68.9844 80.6897 67.0049 80.8198 64.8885V9.55613C80.699 7.43627 79.7429 5.45112 78.1617 4.0367C76.5804 2.62227 74.5033 1.89422 72.3864 2.01244H10.4333C8.31649 1.89422 6.23934 2.62227 4.65809 4.0367C3.07684 5.45112 2.12081 7.43627 1.99995 9.55613V64.8885C2.13009 67.0049 3.08884 68.9844 4.66793 70.3969C6.24702 71.8094 8.31887 72.5408 10.4333 72.4322H18.8307" stroke="black" stroke-width="2.6488" stroke-linecap="round" stroke-linejoin="round"/>
<path d="M18.5784 67.9561C18.5784 67.9561 20.6688 84.6316 24.9576 87.8801C29.2463 91.1286 28.1651 64.8159 28.1651 64.8159" stroke="black" stroke-width="2.6488" stroke-linecap="round" stroke-linejoin="round"/>
<path d="M60.7947 27.5313C65.93 27.5313 70.093 23.3621 70.093 18.219C70.093 13.076 65.93 8.90674 60.7947 8.90674C55.6593 8.90674 51.4963 13.076 51.4963 18.219C51.4963 23.3621 55.6593 27.5313 60.7947 27.5313Z" fill="white"/>
<path d="M60.6856 6.6333C58.3833 6.6333 56.1326 7.31706 54.2183 8.5981C52.3039 9.87914 50.8118 11.6999 49.9308 13.8302C49.0497 15.9605 48.8192 18.3047 49.2684 20.5662C49.7175 22.8277 50.8262 24.905 52.4542 26.5355C54.0822 28.1659 56.1565 29.2763 58.4146 29.7261C60.6727 30.176 63.0133 29.9451 65.1404 29.0627C67.2676 28.1803 69.0856 26.686 70.3648 24.7688C71.6439 22.8516 72.3266 20.5975 72.3266 18.2917C72.3266 15.1997 71.1002 12.2344 68.9171 10.048C66.734 7.86159 63.773 6.6333 60.6856 6.6333ZM62.6678 23.8863C62.6678 24.0901 62.6278 24.292 62.5499 24.4803C62.472 24.6686 62.3578 24.8397 62.2139 24.9838C62.07 25.1279 61.8992 25.2422 61.7112 25.3202C61.5232 25.3982 61.3217 25.4384 61.1181 25.4384C60.7037 25.4385 60.3058 25.2761 60.0094 24.9861C59.713 24.696 59.5418 24.3012 59.5324 23.8863V16.9923L59.3522 17.2811C59.243 17.4562 59.1 17.6077 58.9316 17.7268C58.7632 17.8459 58.5728 17.9302 58.3715 17.9747C58.1702 18.0191 57.9621 18.0229 57.7593 17.9859C57.5565 17.9488 57.3632 17.8716 57.1905 17.7587C57.0179 17.6459 56.8695 17.4996 56.754 17.3286C56.6385 17.1576 56.5582 16.9653 56.5179 16.7628C56.4775 16.5604 56.4779 16.3519 56.519 16.1496C56.5601 15.9473 56.6411 15.7552 56.7573 15.5847L59.8207 10.9285C59.9978 10.6459 60.265 10.4315 60.579 10.3201C60.893 10.2088 61.2354 10.2069 61.5506 10.3149C61.8711 10.4082 62.153 10.6026 62.3543 10.8693C62.5556 11.1359 62.6656 11.4605 62.6678 11.7948V23.8863Z" fill="black"/>
</g>
</svg>
