<svg width="644" height="641" viewBox="0 0 644 641" fill="none" xmlns="http://www.w3.org/2000/svg">
<g filter="url(#filter0_d_206_164)">
<path fill-rule="evenodd" clip-rule="evenodd" d="M383.856 115.697C562.586 18.0472 826.608 366.797 254.793 534.2C-123.427 73.8477 291.168 -65.656 383.856 115.697Z" fill="#FA4F4F"/>
<path d="M369.609 122.978L377.094 137.623L391.527 129.738C470.123 86.7969 569.813 141.864 585.021 228.325C592.424 270.412 579.753 321.663 529.822 373.335C480.795 424.072 395.972 474.915 260.46 515.823C171.523 405.705 130.069 315.924 118.133 246.388C105.977 175.57 124.372 126.084 154.194 95.4743C215.46 32.5918 328.851 43.231 369.609 122.978Z" stroke="black" stroke-width="32"/>
</g>
<defs>
<filter id="filter0_d_206_164" x="98.3441" y="38.8191" width="545.633" height="528.38" filterUnits="userSpaceOnUse" color-interpolation-filters="sRGB">
<feFlood flood-opacity="0" result="BackgroundImageFix"/>
<feColorMatrix in="SourceAlpha" type="matrix" values="0 0 0 0 0 0 0 0 0 0 0 0 0 0 0 0 0 0 127 0" result="hardAlpha"/>
<feOffset dx="41" dy="33"/>
<feComposite in2="hardAlpha" operator="out"/>
<feColorMatrix type="matrix" values="0 0 0 0 0 0 0 0 0 0 0 0 0 0 0 0 0 0 1 0"/>
<feBlend mode="normal" in2="BackgroundImageFix" result="effect1_dropShadow_206_164"/>
<feBlend mode="normal" in="SourceGraphic" in2="effect1_dropShadow_206_164" result="shape"/>
</filter>
</defs>
</svg>
