<svg width="420" height="472" viewBox="0 0 420 472" fill="none" xmlns="http://www.w3.org/2000/svg">
<path d="M412.248 158.066C408.146 149.644 381.867 112.427 376.098 107.696C373.593 105.869 370.828 104.431 367.894 103.43L367.675 104.032C363.418 124.685 367.424 146.183 378.832 163.918C382.934 170.754 386.817 175.485 388.348 177.782C390.262 181.009 386.407 185.493 380.363 189.978C370.472 196.97 359.622 202.496 348.151 206.385V206.166C348.752 204.909 345.006 201.326 340.576 201.053H339.838V204.198C338.306 208.6 330.404 207.834 326.958 207.26C325.782 207.041 320.231 204.772 320.231 203.076V202.803C319.816 202.762 319.396 202.806 318.998 202.932C318.601 203.059 318.233 203.266 317.918 203.54C317.603 203.814 317.347 204.149 317.167 204.526C316.986 204.902 316.884 205.312 316.868 205.729C317.011 206.647 317.367 207.519 317.909 208.274C318.45 209.029 319.161 209.647 319.985 210.077C319.621 209.997 319.243 209.997 318.879 210.078C318.514 210.159 318.172 210.318 317.875 210.544C317.579 210.771 317.335 211.059 317.161 211.389C316.987 211.719 316.887 212.083 316.868 212.456C317.042 213.286 317.407 214.063 317.934 214.728C318.461 215.392 319.135 215.925 319.903 216.284C319.567 216.18 319.211 216.153 318.863 216.207C318.515 216.26 318.183 216.392 317.894 216.592C317.604 216.792 317.364 217.056 317.191 217.362C317.018 217.669 316.917 218.011 316.895 218.362C316.895 219.347 318.126 220.495 320.259 221.48C326.495 223.781 333.259 224.255 339.756 222.847C343.175 222.569 346.552 221.899 349.819 220.851L350.502 219.839C361.166 220.054 371.754 218.003 381.567 213.823C400.38 206.358 417.717 192.822 418.674 178.083C419.002 170.672 415.475 164.902 412.248 158.066Z" fill="black"/>
<path d="M330.814 357.495C336.283 381.587 343.311 404.803 350.311 426.542H350.53H382.496C382.661 407.045 382.797 382.79 382.879 357.386H330.923L330.814 357.495Z" fill="black"/>
<path d="M350.694 463.54C333.385 465.673 321.79 457.004 319.138 467.587L319.548 470.103H382.059C382.059 470.103 382.059 465.098 382.196 456.43H381.485C370.492 455.719 360.62 462.309 350.694 463.54Z" fill="black"/>
<path d="M329.146 130.831C333.166 132.034 347.467 105.372 349.19 98.2901C349.19 82.3478 346.783 68.3743 345.444 52.4047V52.1586C346.559 52.5902 347.776 52.6829 348.944 52.425C350.111 52.1672 351.177 51.5703 352.006 50.7093C354.741 47.2365 350.393 35.0131 344.022 40.5369H343.885C343.885 39.5524 343.721 39.1969 343.557 38.1305V37.5836H343.311C343.311 37.5836 332.619 36.2983 324.935 36.2983C317.743 36.2983 306.996 37.5836 306.996 37.5836C306.705 37.6119 306.412 37.6119 306.121 37.5836V37.8297C305.523 40.7169 305.23 43.659 305.246 46.6075C305.246 56.3971 316.184 77.3983 320.04 78.9296C320.514 79.1238 321.01 79.2614 321.516 79.3398C320.449 86.5327 318.53 93.5734 315.801 100.314C316.211 104.744 324.36 129.354 329.146 130.831Z" fill="black"/>
<path d="M325.071 25.7698C329.911 25.7698 337.623 26.4261 341.314 26.7542V26.5901C340.59 24.2342 339.369 22.0613 337.732 20.2187C328.325 9.69076 316.922 14.6129 310.387 26.3167V26.6448C314.434 26.2893 321.051 25.7698 325.071 25.7698Z" fill="black"/>
<path d="M320.559 174.883C320.524 175.084 320.532 175.289 320.584 175.486C320.636 175.683 320.731 175.866 320.861 176.022C320.991 176.179 321.154 176.304 321.338 176.391C321.522 176.478 321.723 176.523 321.927 176.524H337.76C337.963 176.523 338.164 176.478 338.348 176.391C338.532 176.304 338.695 176.179 338.826 176.022C338.956 175.866 339.05 175.683 339.102 175.486C339.154 175.289 339.163 175.084 339.127 174.883C338.734 172.707 337.589 170.739 335.892 169.321C334.195 167.904 332.054 167.127 329.843 167.127C327.632 167.127 325.491 167.904 323.794 169.321C322.098 170.739 320.953 172.707 320.559 174.883Z" fill="black"/>
<path d="M298.847 102.391C297.095 102.86 295.405 103.539 293.816 104.415C284.71 109.61 256.079 133.893 256.079 133.893C247.594 122.219 240.267 109.745 234.203 96.6486C234.203 96.6486 234.203 96.6486 234.203 96.6486L233.492 96.9768L220.695 98.7815C221.925 102.965 223.429 108.243 225.316 114.04C232.344 136.463 242.844 165.996 249.161 165.613C260.646 164.711 287.444 149.644 288.401 149.206C288.661 149.063 288.908 148.899 289.14 148.714C292.038 146.581 302.019 136.682 299.586 103.075L298.847 102.391Z" fill="black"/>
<path d="M264.611 401.958C254.11 401.247 244.594 407.837 235.133 409.068C218.425 411.201 207.487 402.533 204.752 413.115V414.182L264.912 413.908C264.912 413.908 264.72 409.259 264.474 401.958H264.611Z" fill="black"/>
<path d="M224.058 284.401C218.999 298.566 229.144 341.607 236.144 367.804H263.9C263.681 344.561 264.146 320.141 266.908 314.699C264.939 313.305 246.153 300.07 224.359 283.635C224.249 283.881 224.14 284.155 224.058 284.401Z" fill="black"/>
<path d="M217.85 89.4562L230.429 88.171C232.617 78.5454 233.492 58.0912 230.265 55.3566C229.144 54.3449 227.531 54.0714 227.093 55.7668C226.628 53.962 225.89 52.8135 224.687 52.8135C222.855 52.8135 221.952 53.8527 221.733 55.8762C221.622 55.5669 221.441 55.2874 221.204 55.0597C220.966 54.832 220.68 54.6622 220.366 54.5636C217.139 53.88 217.987 60.7163 218.014 62.3844C218.014 67.2518 218.425 71.3263 218.014 76.768C218.014 75.8109 217.768 74.8538 217.632 74.0335C217.504 72.7611 217.181 71.516 216.675 70.3418C216.292 69.5762 215.362 68.5371 214.295 69.0566C212.655 69.8496 212.846 72.2287 212.901 73.5412C212.956 77.3969 214.624 89.839 217.85 89.4562Z" fill="black"/>
<path d="M202.537 88.9093C194.798 86.1748 190.751 87.7335 189.985 88.089C188.81 91.0423 187.524 94.0229 186.13 96.9762C180.03 109.941 172.704 122.294 164.254 133.865C164.254 133.865 137.92 114.286 128.705 109.254C120.501 104.797 107.102 105.344 107.102 105.344C106.928 104.082 106.445 102.883 105.696 101.852C104.947 100.822 103.955 99.9924 102.809 99.4373L102.207 99.2732C93.063 97.5041 83.6528 97.6344 74.5611 99.656L74.1783 99.8475C72.4209 101.238 71.2104 103.203 70.7601 105.399C70.7601 105.399 48.3917 108.707 41.8562 114.094C36.059 118.852 12.4053 149.643 8.33089 158.066C5.10415 164.765 1.57662 170.672 2.04149 178.164C3.02592 193.177 20.855 206.877 39.9694 214.26V214.561C39.2584 230.093 38.2739 241.906 37.727 252.243H40.6803L142.842 252.079H145.057C144.729 235.261 137.236 181.528 132.314 149.151C133.162 149.561 160.07 164.628 171.555 165.558C177.352 165.996 186.759 140.947 193.759 119.263C198.955 103.129 202.81 89.0187 202.81 89.0187H202.592L202.537 88.9093ZM112.079 173.68H99.4453L97.7499 185.301H98.2695C98.5579 185.338 98.836 185.432 99.0877 185.578C99.3394 185.724 99.5595 185.918 99.7352 186.15C99.9108 186.381 100.039 186.646 100.111 186.927C100.183 187.209 100.199 187.502 100.156 187.79L99.6094 197.798L99.3633 202.119C99.7722 202.093 100.182 202.149 100.569 202.285C100.956 202.42 101.311 202.632 101.615 202.907C101.918 203.183 102.163 203.516 102.335 203.888C102.508 204.26 102.604 204.662 102.617 205.072C102.468 205.988 102.109 206.857 101.569 207.612C101.028 208.366 100.32 208.985 99.5 209.42C99.8616 209.366 100.23 209.385 100.584 209.477C100.938 209.568 101.271 209.729 101.561 209.951C101.852 210.173 102.095 210.451 102.277 210.768C102.458 211.085 102.574 211.436 102.617 211.799C102.457 212.634 102.098 213.419 101.569 214.085C101.041 214.752 100.359 215.281 99.582 215.627C99.9206 215.517 100.28 215.487 100.632 215.539C100.985 215.591 101.32 215.725 101.612 215.929C101.903 216.133 102.144 216.403 102.313 216.716C102.483 217.029 102.578 217.377 102.59 217.733C102.59 219.018 100.731 220.686 97.3944 221.835L98.1601 222.135L97.8319 228.233C97.8486 228.765 97.6633 229.284 97.3132 229.685C96.9632 230.085 96.4744 230.339 95.9451 230.394H82.792C82.2628 230.339 81.774 230.085 81.4239 229.685C81.0739 229.284 80.8885 228.765 80.9052 228.233L80.6044 222.764V222.464C77.4145 221.822 74.2856 220.907 71.2523 219.729H70.4593C73.1939 217.76 72.3462 205.646 72.3462 205.646C72.0454 204.306 75.2721 200.916 79.0731 200.642H79.3192L79.1551 197.251L78.9637 192.876C77.6269 192.794 76.342 192.328 75.2628 191.535C74.1835 190.742 73.3556 189.655 72.8778 188.403C72.4001 187.152 72.2928 185.79 72.5689 184.479C72.8449 183.168 73.4925 181.965 74.4344 181.013C75.3762 180.061 76.5723 179.4 77.8798 179.109C79.1873 178.819 80.5508 178.911 81.8073 179.375C83.0637 179.839 84.16 180.654 84.9651 181.725C85.7701 182.795 86.2499 184.075 86.3469 185.411H93.9763L96.2459 170.152H112.352L112.079 173.68Z" fill="black"/>
<path d="M170.379 452.821C158.484 451.426 143.225 444.152 139.534 443.879H138.741C137.018 444.344 117.165 443.879 117.165 443.879C117.165 443.879 117.165 443.469 117.165 443.195V464.306L180.305 464.032C181.536 456.676 176.122 453.477 170.379 452.821Z" fill="black"/>
<path d="M50.4428 452.274C45.3839 452.52 44.9738 445.793 35.0201 440.762L34.5552 440.516L16.0698 433.16H15.7417L7.10059 450.852L33.9536 463.513L67.0687 463.814V462.966C66.2484 458.372 59.1933 451.864 50.4428 452.274Z" fill="black"/>
<path d="M235.242 470.376C251.432 470.376 264.556 457.766 264.556 442.21C264.556 426.655 251.432 414.045 235.242 414.045C219.052 414.045 205.928 426.655 205.928 442.21C205.928 457.766 219.052 470.376 235.242 470.376Z" stroke="black" stroke-width="2.6488" stroke-miterlimit="10" stroke-linecap="round"/>
<path d="M205.381 442.156C205.381 442.156 234.531 453.942 264.036 442.156" stroke="black" stroke-width="2.6488" stroke-miterlimit="10"/>
<path d="M235.488 413.99V470.349" stroke="black" stroke-width="2.6488" stroke-miterlimit="10"/>
<path d="M256.079 422.605C244.402 425.941 240.738 433.543 241.723 447.024" stroke="black" stroke-width="2.6488" stroke-miterlimit="10"/>
<path d="M255.423 462.09C246.208 461.325 242.215 456.129 241.75 447.023" stroke="black" stroke-width="2.6488" stroke-miterlimit="10"/>
<path d="M213.64 422.605C225.343 425.941 228.98 433.543 228.023 447.024" stroke="black" stroke-width="2.6488" stroke-miterlimit="10"/>
<path d="M214.323 462.09C223.538 461.325 227.531 456.129 227.996 447.023" stroke="black" stroke-width="2.6488" stroke-miterlimit="10"/>
<path d="M117.138 469.528H180.442V464.333H117.138V469.528Z" stroke="black" stroke-width="2.6488" stroke-linecap="round" stroke-linejoin="round"/>
<path d="M319.165 274.283C321.134 335.236 339.701 394.821 356.3 445.054C356.3 445.054 340.357 452.164 328.435 453.586C322.72 454.242 317.278 457.442 318.618 464.743L319.493 470.212H382.004C382.004 470.212 383.536 330.751 382.414 251.45" stroke="black" stroke-width="2.6488" stroke-miterlimit="10"/>
<path d="M276.779 251.478C260.591 258.232 227.558 274.612 224.058 284.292C216.62 305.157 242.106 388.751 242.106 388.751C237.211 390.064 225.89 395.806 213.967 397.201C208.225 397.884 202.811 401.056 204.15 408.385L204.916 414.073L265.076 413.799C265.076 413.799 261.083 319.212 267.537 313.716C279.733 303.297 301.308 296.816 320.122 297.309" stroke="black" stroke-width="2.6488" stroke-miterlimit="10"/>
<path d="M39.8333 214.561C39.1223 230.093 38.1378 241.907 37.5909 252.243L144.948 252.052C144.593 232.199 134.202 160.937 129.854 134.03" stroke="black" stroke-width="2.6488" stroke-linecap="round" stroke-linejoin="round"/>
<path d="M35.0474 440.734C42.2392 434.854 97.0938 339.201 109.016 274.42" stroke="black" stroke-width="2.6488" stroke-miterlimit="10" stroke-linecap="round"/>
<path d="M40.6806 252.407C37.3991 314.918 16.0698 432.886 16.0698 432.886" stroke="black" stroke-width="2.6488" stroke-miterlimit="10" stroke-linecap="round"/>
<path d="M95.3711 321.263C100.512 349.155 115.607 434.719 117.056 443.852C117.056 443.852 138.495 444.29 138.741 443.852C142.35 435.977 144.839 352.437 142.624 253.064" stroke="black" stroke-width="2.6488" stroke-miterlimit="10" stroke-linecap="round"/>
<path d="M59.1934 267.474C56.4588 282.213 41.8291 286.616 28.4026 284.346" stroke="black" stroke-width="2.6488" stroke-miterlimit="10" stroke-linecap="round"/>
<path d="M139.534 443.824C143.225 444.098 158.484 451.371 170.379 452.766C176.122 453.422 181.536 456.622 180.223 463.95L117.083 464.224" stroke="black" stroke-width="2.6488" stroke-linecap="round" stroke-linejoin="round"/>
<path d="M117.056 443.167V463.813" stroke="black" stroke-width="2.6488" stroke-miterlimit="10"/>
<path d="M4.06555 456.294L32.6414 469.146L66.987 468.873V463.677L33.8445 463.376L6.99149 450.715L4.06555 456.294Z" stroke="black" stroke-width="2.6488" stroke-linecap="round" stroke-linejoin="round"/>
<path d="M66.9594 462.966C66.2484 458.29 59.1933 451.782 50.5522 452.192C45.4113 452.438 45.0832 445.492 34.6646 440.433L15.7417 432.941L7.10059 450.633" stroke="black" stroke-width="2.6488" stroke-linecap="round" stroke-linejoin="round"/>
<path d="M76.4756 40.4262C77.3233 34.2189 78.4444 25.0309 82.765 20.2181C96.6017 4.74067 112.681 36.2698 115.251 46.4148C117.685 55.8763 104.313 77.2056 100.485 78.737C94.6875 81.034 86.4566 75.5922 83.8588 70.2052" stroke="black" stroke-width="2.6488" stroke-miterlimit="10" stroke-linecap="round"/>
<path d="M74.5063 99.4649C74.5063 83.2491 73.6312 68.5647 74.9985 52.4037" stroke="black" stroke-width="2.6488" stroke-miterlimit="10"/>
<path d="M98.8987 78.4643C99.6917 85.4373 100.594 93.5589 103.301 99.4381" stroke="black" stroke-width="2.6488" stroke-miterlimit="10"/>
<path d="M78.6904 43.2707C71.0611 32.0044 65.4006 46.8255 68.3539 50.7086C70.2407 53.197 74.2878 52.7321 76.5574 51.5563" stroke="black" stroke-width="2.6488" stroke-miterlimit="10" stroke-linecap="round"/>
<path d="M105.899 27.2735C106.828 27.2735 128.759 22.8983 125.669 16.8823C122.169 9.99134 79.8659 31.7308 77.2681 32.8793" stroke="black" stroke-width="2.6488" stroke-miterlimit="10"/>
<path d="M93.5387 44.5829C92.4168 44.2412 91.2301 44.1696 90.0752 44.3739C88.9204 44.5783 87.8303 45.0528 86.8938 45.7588" stroke="black" stroke-width="2.6488" stroke-miterlimit="10" stroke-linecap="round"/>
<path d="M75.1357 45.486C73.9643 46.6323 72.3992 47.2877 70.7605 47.3181" stroke="black" stroke-width="2.6488" stroke-miterlimit="10" stroke-linecap="round"/>
<path d="M91.4329 51.8019C92.0672 51.8019 92.5814 51.2877 92.5814 50.6534C92.5814 50.0191 92.0672 49.5049 91.4329 49.5049C90.7986 49.5049 90.2844 50.0191 90.2844 50.6534C90.2844 51.2877 90.7986 51.8019 91.4329 51.8019Z" fill="black"/>
<path d="M106.473 51.4199C107.107 51.4199 107.621 50.9057 107.621 50.2714C107.621 49.6371 107.107 49.1229 106.473 49.1229C105.839 49.1229 105.324 49.6371 105.324 50.2714C105.324 50.9057 105.839 51.4199 106.473 51.4199Z" fill="black"/>
<path d="M108.388 44.8833C106.583 44.0629 102.481 44.309 101.743 46.0865C100.594 48.821 102.344 54.8917 103.083 58.3098C103.575 60.6342 104.423 65.1735 100.348 63.9429" stroke="black" stroke-width="2.6488" stroke-miterlimit="10" stroke-linecap="round"/>
<path d="M190.013 88.1166C183.297 104.328 174.697 119.692 164.39 133.893C164.39 133.893 138.057 114.313 128.841 109.282C120.638 104.825 107.239 105.372 107.239 105.372C107.034 103.998 106.46 102.705 105.579 101.631C104.698 100.558 103.542 99.7427 102.235 99.2735C93.0465 96.7577 76.2565 98.5625 74.1783 99.8478C72.4209 101.238 71.2104 103.204 70.7601 105.399C70.7601 105.399 48.3917 108.708 41.8562 114.095C36.059 118.853 12.4327 149.643 8.33089 158.066C5.10415 164.765 1.57662 170.672 2.04149 178.165C3.54548 201.381 45.3837 221.479 69.9671 219.866C73.3579 219.647 72.5376 205.537 72.5376 205.537C63.623 203.377 27.1991 186.396 32.34 177.782C42.0229 164.716 53.0184 152.676 65.1543 141.85" stroke="black" stroke-width="2.6488" stroke-linejoin="round"/>
<path d="M202.647 76.604C202.373 71.1349 202.346 67.1972 202.455 62.3297C202.455 60.6617 203.33 53.8254 200.104 54.509C196.877 55.1926 197.752 70.1778 197.807 72.5022" stroke="black" stroke-width="2.6488" stroke-linecap="round" stroke-linejoin="round"/>
<path d="M198.682 55.7953C198.381 53.7717 197.561 52.7053 195.729 52.7326C191.682 52.7326 192.666 66.4053 192.584 72.64" stroke="black" stroke-width="2.6488" stroke-linecap="round" stroke-linejoin="round"/>
<path d="M202.646 88.9373C205.873 89.3202 207.705 76.632 207.869 72.7216C207.869 71.4364 208.088 69.0573 206.474 68.2643C205.381 67.7448 204.451 68.7565 204.068 69.5222C203.565 70.6975 203.242 71.9421 203.111 73.2138C202.892 74.8545 202.591 76.8234 202.4 78.4641" stroke="black" stroke-width="2.6488" stroke-linecap="round" stroke-linejoin="round"/>
<path d="M193.212 55.658C192.912 53.9626 191.161 54.2361 190.04 55.2478C186.814 58.1464 187.689 78.546 189.876 88.0621C189.876 88.0621 193.923 85.7378 202.537 88.8005" stroke="black" stroke-width="2.6488" stroke-linecap="round" stroke-linejoin="round"/>
<path d="M132.26 149.124C133.107 149.534 160.015 164.574 171.5 165.531C181.645 166.352 202.756 88.9646 202.756 88.9646" stroke="black" stroke-width="2.6488" stroke-miterlimit="10"/>
<path d="M94.387 185.411H80.4957C80.2057 185.445 79.9255 185.536 79.6719 185.681C79.4184 185.825 79.1968 186.02 79.0204 186.252C78.8441 186.485 78.7167 186.751 78.646 187.034C78.5752 187.317 78.5626 187.612 78.6088 187.9L79.4565 203.951" stroke="black" stroke-width="2.6488" stroke-miterlimit="10"/>
<path d="M99.3361 202.858L100.156 187.9C100.199 187.612 100.183 187.319 100.111 187.037C100.039 186.756 99.911 186.491 99.7353 186.26C99.5596 186.028 99.3395 185.834 99.0878 185.688C98.8362 185.542 98.558 185.448 98.2696 185.411H97.2031" stroke="black" stroke-width="2.6488" stroke-miterlimit="10"/>
<path d="M80.605 222.792L80.9058 228.261C80.8891 228.793 81.0744 229.312 81.4245 229.712C81.7745 230.113 82.2633 230.367 82.7926 230.422H96.0551C96.5869 230.373 97.0796 230.121 97.4309 229.719C97.7822 229.317 97.9652 228.795 97.9419 228.261L98.27 222.327" stroke="black" stroke-width="2.6488" stroke-miterlimit="10"/>
<path d="M79.4285 203.624C80.9871 208.026 89.054 207.288 92.5542 206.686C93.8394 206.468 99.9921 203.952 99.3632 202.256" stroke="black" stroke-width="2.6488" stroke-miterlimit="10"/>
<path d="M99.4458 202.229C99.8547 202.203 100.265 202.26 100.651 202.395C101.038 202.531 101.394 202.742 101.697 203.018C102.001 203.293 102.246 203.627 102.418 203.998C102.59 204.37 102.686 204.773 102.7 205.182C102.481 209.339 94.8791 213.085 86.5935 211.8" stroke="black" stroke-width="2.6488" stroke-miterlimit="10" stroke-linecap="round"/>
<path d="M99.5818 209.53C99.9434 209.476 100.312 209.495 100.666 209.586C101.02 209.678 101.352 209.839 101.643 210.061C101.934 210.282 102.177 210.56 102.358 210.878C102.54 211.195 102.656 211.546 102.699 211.909C102.48 215.546 95.1518 218.909 86.8662 217.788" stroke="black" stroke-width="2.6488" stroke-miterlimit="10" stroke-linecap="round"/>
<path d="M99.6915 215.791C100.03 215.681 100.39 215.651 100.742 215.703C101.094 215.756 101.429 215.889 101.721 216.093C102.013 216.298 102.253 216.567 102.423 216.88C102.593 217.193 102.687 217.541 102.699 217.897C102.699 221.26 90.2574 227.14 71.3071 219.729" stroke="black" stroke-width="2.6488" stroke-miterlimit="10" stroke-linecap="round"/>
<path d="M72.3191 205.647C71.7995 204.362 75.0536 200.807 79.0187 200.506" stroke="black" stroke-width="2.6488" stroke-miterlimit="10" stroke-linecap="round"/>
<path d="M347.987 206.167C348.589 204.909 344.842 201.327 340.412 201.053" stroke="black" stroke-width="2.6488" stroke-miterlimit="10" stroke-linecap="round"/>
<path d="M79.2651 197.088C85.6366 194.545 86.6484 202.038 95.098 201.272C96.0601 201.111 96.9694 200.721 97.7498 200.136C98.5301 199.551 99.1587 198.787 99.5827 197.908" stroke="black" stroke-width="2.6488" stroke-miterlimit="10" stroke-linecap="round"/>
<path d="M95.4528 200.998L99.4453 173.789L112.079 173.735L112.352 170.152H96.2459L91.7065 200.67" stroke="black" stroke-width="2.6488" stroke-linecap="round" stroke-linejoin="round"/>
<path d="M381.649 214.479C382.688 231.46 383.645 247.047 383.919 251.832L276.561 251.641C276.944 231.788 284.929 175.594 289.304 148.686" stroke="black" stroke-width="2.6488" stroke-linecap="round" stroke-linejoin="round"/>
<path d="M378.696 163.864C378.942 168.923 379.516 178.056 380.2 189.541" stroke="black" stroke-width="2.6488" stroke-linecap="round" stroke-linejoin="round"/>
<path d="M341.26 26.5901C340.536 24.2342 339.315 22.0613 337.678 20.2187C328.271 9.69076 316.868 14.6129 310.333 26.3167" stroke="black" stroke-width="2.6488" stroke-miterlimit="10" stroke-linecap="round"/>
<path d="M343.967 40.427C343.967 39.4426 343.803 39.0871 343.639 38.0206" stroke="black" stroke-width="2.6488" stroke-miterlimit="10" stroke-linecap="round"/>
<path d="M349.19 98.8638C349.19 82.6481 346.811 68.5653 345.443 52.3769" stroke="black" stroke-width="2.6488" stroke-miterlimit="10"/>
<path d="M342.025 42.9146C349.737 30.7187 355.397 46.743 352.444 50.9268C351.413 52.0346 350.021 52.7392 348.518 52.9146C347.015 53.0899 345.498 52.7246 344.24 51.8839" stroke="white" stroke-width="1.9096" stroke-miterlimit="10" stroke-linecap="round"/>
<path d="M326.903 44.5829C328.025 44.2412 329.212 44.1696 330.367 44.3739C331.522 44.5783 332.612 45.0528 333.548 45.7588" stroke="white" stroke-width="1.9096" stroke-miterlimit="10" stroke-linecap="round"/>
<path d="M345.307 45.486C346.478 46.6323 348.043 47.2877 349.682 47.3181" stroke="white" stroke-width="1.9096" stroke-miterlimit="10" stroke-linecap="round"/>
<path d="M329.009 51.8019C329.643 51.8019 330.158 51.2877 330.158 50.6534C330.158 50.0191 329.643 49.5049 329.009 49.5049C328.375 49.5049 327.861 50.0191 327.861 50.6534C327.861 51.2877 328.375 51.8019 329.009 51.8019Z" fill="white"/>
<path d="M314.79 51.4199C315.424 51.4199 315.938 50.9057 315.938 50.2714C315.938 49.6371 315.424 49.1229 314.79 49.1229C314.155 49.1229 313.641 49.6371 313.641 50.2714C313.641 50.9057 314.155 51.4199 314.79 51.4199Z" fill="white"/>
<path d="M312.875 44.8833C314.68 44.0629 318.755 44.309 319.493 46.0865C320.669 48.821 316.184 57.7356 315.418 61.1537C314.926 63.4781 318.782 63.2046 321.134 62.9312" stroke="white" stroke-width="1.9096" stroke-miterlimit="10" stroke-linecap="round"/>
<path d="M330.021 65.9667C327.97 72.8304 319.083 72.9124 317.333 68.3458" stroke="white" stroke-width="1.9096" stroke-miterlimit="10" stroke-linecap="round"/>
<path d="M217.878 74.2531C217.878 68.4286 217.878 67.034 217.687 62.0571C217.687 60.3344 216.784 53.3614 220.175 54.045C223.976 54.8107 222.909 70.0693 222.691 72.4483" stroke="white" stroke-width="1.9096" stroke-linecap="round" stroke-linejoin="round"/>
<path d="M221.597 54.9742C221.593 54.5805 221.674 54.1906 221.835 53.8312C221.995 53.4717 222.232 53.1512 222.528 52.8916C222.824 52.632 223.172 52.4393 223.55 52.3268C223.927 52.2143 224.324 52.1846 224.714 52.2397C229.199 52.2397 228.241 65.5569 228.077 72.1471" stroke="white" stroke-width="1.9096" stroke-linecap="round" stroke-linejoin="round"/>
<path d="M299.367 102.993C302.101 142.152 288.183 149.125 288.183 149.125C287.335 149.535 260.427 164.575 248.942 165.532C238.797 166.352 217.878 89.5119 217.878 89.5119" stroke="black" stroke-width="2.6488" stroke-linecap="round" stroke-linejoin="round"/>
<path d="M266.69 314.617C266.69 314.617 247.329 300.944 224.168 283.471" stroke="black" stroke-width="2.6488" stroke-miterlimit="10"/>
<path d="M383.234 357.331C383.234 357.331 359.745 357.331 330.95 356.702" stroke="black" stroke-width="2.6488" stroke-miterlimit="10"/>
<path d="M79.3744 192.904C77.9953 192.904 76.6471 192.495 75.5004 191.729C74.3537 190.963 73.4599 189.874 72.9322 188.6C72.4044 187.326 72.2663 185.924 72.5354 184.571C72.8044 183.218 73.4685 181.976 74.4437 181.001C75.4189 180.025 76.6614 179.361 78.014 179.092C79.3667 178.823 80.7687 178.961 82.0429 179.489C83.317 180.017 84.4061 180.911 85.1723 182.057C85.9385 183.204 86.3475 184.552 86.3475 185.931" stroke="black" stroke-width="2.6488" stroke-linejoin="round"/>
<path d="M347.96 206.412C356.874 204.252 393.38 186.45 388.239 177.782C383.782 171.082 359.035 143.381 367.566 103.95" stroke="black" stroke-width="2.6488" stroke-linecap="round" stroke-linejoin="round"/>
<path d="M230.238 87.6788C237.024 104.031 245.686 119.54 256.052 133.892C256.052 133.892 284.71 109.61 293.789 104.414C300.789 100.422 315.966 99.9569 315.966 99.9569C316.813 104.141 324.333 129.38 329.146 130.83C333.193 132.033 347.495 105.344 349.19 98.2888C349.19 98.2888 369.535 102.309 376.098 107.696C381.868 112.426 408.147 149.643 412.248 158.066C415.475 164.765 419.003 170.672 418.538 178.164C417.034 201.38 374.949 221.534 350.366 219.921" stroke="black" stroke-width="2.6488" stroke-linecap="round" stroke-linejoin="round"/>
<path d="M233.356 96.8396L220.558 98.6444" stroke="black" stroke-width="2.6488" stroke-linecap="round" stroke-linejoin="round"/>
<path d="M350.53 426.46H381.649" stroke="black" stroke-width="2.6488" stroke-linecap="round" stroke-linejoin="round"/>
<path d="M236.145 367.805H263.326" stroke="black" stroke-width="2.6488" stroke-linecap="round" stroke-linejoin="round"/>
<path d="M319.138 467.587C321.872 457.005 333.385 465.673 350.694 463.54C360.566 462.337 370.492 455.72 381.43 456.458" stroke="black" stroke-width="2.6488" stroke-miterlimit="10"/>
<path d="M204.752 413.088C207.268 402.533 218.425 411.201 235.023 409.068C244.485 407.837 254.001 401.247 264.502 401.958" stroke="black" stroke-width="2.6488" stroke-miterlimit="10"/>
<path d="M339.673 223.148V225.718C339.673 227.169 339.097 228.56 338.072 229.586C337.046 230.611 335.655 231.187 334.204 231.187H325.454C324.003 231.187 322.612 230.611 321.587 229.586C320.561 228.56 319.985 227.169 319.985 225.718V221.808" stroke="black" stroke-width="2.6488" stroke-miterlimit="10" stroke-linecap="round"/>
<path d="M320.012 203.185V182.129C320.012 180.679 320.588 179.288 321.614 178.262C322.64 177.236 324.031 176.66 325.481 176.66H334.232C335.682 176.66 337.073 177.236 338.099 178.262C339.125 179.288 339.701 180.679 339.701 182.129V204.006" stroke="black" stroke-width="2.6488" stroke-miterlimit="10" stroke-linecap="round"/>
<path d="M337.76 176.524C337.963 176.523 338.164 176.478 338.348 176.391C338.532 176.304 338.695 176.179 338.826 176.022C338.956 175.866 339.05 175.683 339.102 175.486C339.154 175.289 339.163 175.084 339.127 174.883C338.734 172.707 337.589 170.739 335.892 169.321C334.195 167.904 332.054 167.127 329.843 167.127C327.632 167.127 325.491 167.904 323.794 169.321C322.098 170.739 320.953 172.707 320.559 174.883C320.524 175.084 320.532 175.289 320.584 175.486C320.636 175.683 320.731 175.866 320.861 176.022C320.991 176.179 321.154 176.304 321.338 176.391C321.522 176.478 321.723 176.523 321.927 176.524H337.76Z" stroke="black" stroke-width="2.6488" stroke-miterlimit="10" stroke-linecap="round"/>
<path d="M217.988 78.847C218.011 77.0214 217.938 75.1959 217.769 73.378C217.607 72.0524 217.238 70.7605 216.675 69.5496C216.265 68.7566 215.226 67.6901 213.941 68.237C212.108 69.0848 212.272 71.5458 212.327 72.9131C212.327 76.0578 212.327 85.1364 216.292 90.414" stroke="white" stroke-width="1.9096" stroke-linecap="round" stroke-linejoin="round"/>
<path d="M231.633 87.3516C233.902 77.6714 234.012 57.5726 230.621 54.5373C229.445 53.5255 227.285 53.4161 227.476 54.9748" stroke="white" stroke-width="1.9096" stroke-linecap="square" stroke-linejoin="round"/>
<path d="M319.219 210.241C318.859 210.095 318.467 210.048 318.083 210.104C317.699 210.159 317.336 210.316 317.033 210.559C316.729 210.801 316.496 211.119 316.356 211.482C316.217 211.844 316.176 212.237 316.238 212.62C316.484 216.476 324.004 219.784 332.646 218.691" stroke="white" stroke-width="1.9096" stroke-miterlimit="10" stroke-linecap="round"/>
<path d="M319.603 216.858C316.868 215.518 316.075 217.432 316.348 218.526C317.306 222.108 326.494 228.37 348.999 221.26C348.999 221.26 351.733 221.835 352.308 221.862" stroke="white" stroke-width="1.9096" stroke-miterlimit="10" stroke-linecap="square"/>
<path d="M339.017 204.334C337.048 207.862 331.032 207.452 326.903 206.85C324.421 206.014 322.093 204.776 320.012 203.186C319.732 203.005 319.414 202.889 319.083 202.846C318.752 202.804 318.415 202.836 318.098 202.94C317.507 203.105 316.988 203.465 316.626 203.961C316.264 204.457 316.079 205.06 316.102 205.674C316.321 209.858 324.306 214.151 332.892 212.839" stroke="white" stroke-width="1.9096" stroke-miterlimit="10" stroke-linecap="round"/>
<path d="M305.711 37.9658C305.113 40.8531 304.82 43.7951 304.836 46.7437C304.836 56.4786 315.774 77.4524 319.657 78.9837C325.454 81.2807 333.685 75.839 336.31 70.452" stroke="white" stroke-width="1.9096" stroke-miterlimit="10" stroke-linecap="round"/>
<path d="M321.379 79.2028C319.739 85.3008 315.91 97.5241 315.91 99.0007" stroke="white" stroke-width="2.6488" stroke-miterlimit="10"/>
<path d="M343.338 37.5003C343.338 37.5003 332.646 36.2151 324.962 36.2151C317.77 36.2151 307.024 37.5003 307.024 37.5003C306.516 37.5078 306.013 37.4129 305.543 37.2215C305.074 37.03 304.647 36.7458 304.29 36.3859C303.933 36.026 303.652 35.5978 303.464 35.1268C303.275 34.6558 303.184 34.1517 303.195 33.6446V30.6366C303.195 29.6358 303.593 28.676 304.301 27.9683C305.008 27.2606 305.968 26.863 306.969 26.863C306.969 26.863 319.001 25.6871 324.962 25.6871C331.47 25.6871 343.283 26.863 343.283 26.863C344.284 26.863 345.244 27.2606 345.952 27.9683C346.659 28.676 347.057 29.6358 347.057 30.6366V33.6446C347.068 34.1425 346.98 34.6375 346.799 35.1013C346.617 35.5651 346.346 35.9884 346 36.3468C345.655 36.7052 345.241 36.9917 344.785 37.1896C344.328 37.3876 343.836 37.4932 343.338 37.5003Z" stroke="black" stroke-width="2.6488" stroke-linecap="round" stroke-linejoin="round"/>
<path d="M311.398 100.668C311.398 100.668 320.258 135.478 328.845 135.396C338.252 135.396 347.549 114.696 353.045 100.039" stroke="black" stroke-width="2.6488" stroke-miterlimit="10" stroke-linecap="round"/>
<path d="M362.972 102.008C360.202 113.98 360.191 126.424 362.939 138.4C365.687 150.376 371.121 161.57 378.832 171.137" stroke="black" stroke-width="2.6488" stroke-miterlimit="10" stroke-linecap="round"/>
<path d="M303.195 101.653C303.195 101.653 307.953 141.14 288.757 154.922" stroke="black" stroke-width="2.6488" stroke-miterlimit="10" stroke-linecap="round"/>
<path d="M361.112 251.969V357.139" stroke="black" stroke-width="2.6488" stroke-miterlimit="10" stroke-linecap="round"/>
<path d="M367.758 251.969V357.139" stroke="black" stroke-width="2.6488" stroke-miterlimit="10" stroke-linecap="round"/>
<path d="M37.9464 215.709C48.1813 219.249 59.0307 220.663 69.8309 219.866C73.2218 219.647 72.4014 205.537 72.4014 205.537C63.4868 203.377 27.0629 186.395 32.2039 177.782C41.8867 164.716 52.8822 152.676 65.0182 141.85" stroke="white" stroke-width="2.6488" stroke-linejoin="round"/>
<path d="M96.8749 73.9522C91.4058 73.7608 89.1362 65.4205 90.5035 66.5416C92.4826 67.594 94.6803 68.1693 96.9213 68.2215C99.1622 68.2737 101.384 67.8015 103.41 66.8424C104.914 66.0221 101.305 74.1436 96.8749 73.9522Z" stroke="black" stroke-width="2.6488" stroke-miterlimit="10"/>
<path d="M186.13 96.0472L162.75 107.313L172.375 83.5778L152.55 73.3233L179.403 60.9359L156.488 39.4425L186.868 44.5834L176.477 11.7691L202.017 34.8485L211.014 1.62402L220.011 34.8485L239.48 21.6408L235.16 44.5834L269.123 38.9503L242.625 60.9359L261.849 72.0381L240.082 78.765L259.278 107.313L235.105 95.6097" stroke="black" stroke-width="2.6488" stroke-linecap="round" stroke-linejoin="round"/>
<path d="M225.179 113.274L223.156 118.47L210.386 102.363L194.006 126.017L194.115 118.47" stroke="black" stroke-width="2.6488" stroke-linecap="round" stroke-linejoin="round"/>
<path d="M330.65 162.387H328.763C327.872 162.387 327.15 163.103 327.15 163.987C327.15 164.87 327.872 165.586 328.763 165.586H330.65C331.541 165.586 332.263 164.87 332.263 163.987C332.263 163.103 331.541 162.387 330.65 162.387Z" fill="black"/>
<path d="M328.134 164.711V166.898C328.134 167.034 328.244 167.144 328.38 167.144H331.088C331.223 167.144 331.334 167.034 331.334 166.898V164.711C331.334 164.575 331.223 164.464 331.088 164.464H328.38C328.244 164.464 328.134 164.575 328.134 164.711Z" fill="black"/>
</svg>
