<svg width="646" height="726" viewBox="0 0 646 726" fill="none" xmlns="http://www.w3.org/2000/svg">
<g opacity="0.13">
<path d="M634.045 243.021C627.726 230.046 587.24 172.708 578.35 165.419C574.492 162.605 570.231 160.389 565.712 158.847L565.375 159.774C558.816 191.593 564.987 224.715 582.563 252.037C588.883 262.569 594.865 269.858 597.224 273.397C600.173 278.368 594.233 285.277 584.923 292.186C569.683 302.958 552.968 311.472 535.294 317.464V317.127C536.221 315.189 530.449 309.67 523.624 309.249H522.487V314.094C520.128 320.876 507.952 319.697 502.644 318.812C500.833 318.475 492.28 314.978 492.28 312.366V311.945C491.64 311.881 490.994 311.949 490.381 312.144C489.768 312.34 489.202 312.658 488.716 313.08C488.231 313.502 487.837 314.019 487.559 314.599C487.281 315.179 487.124 315.81 487.098 316.453C487.319 317.867 487.868 319.211 488.702 320.374C489.536 321.538 490.632 322.489 491.901 323.151V323.151C491.34 323.028 490.758 323.029 490.197 323.153C489.635 323.278 489.108 323.523 488.651 323.872C488.194 324.22 487.818 324.664 487.55 325.173C487.282 325.682 487.128 326.242 487.098 326.817C487.367 328.095 487.93 329.293 488.741 330.317C489.553 331.34 490.591 332.161 491.775 332.715V332.715C491.257 332.554 490.709 332.513 490.172 332.596C489.636 332.678 489.126 332.881 488.679 333.189C488.233 333.497 487.863 333.903 487.596 334.376C487.329 334.848 487.174 335.375 487.14 335.917C487.14 337.433 489.036 339.203 492.322 340.719C501.931 344.264 512.351 344.995 522.361 342.826C527.629 342.397 532.831 341.365 537.864 339.75L538.917 338.191C555.346 338.522 571.659 335.363 586.776 328.923C615.761 317.422 642.471 296.568 643.946 273.86C644.451 262.443 639.017 253.554 634.045 243.021Z" fill="black"/>
<path d="M508.585 550.271C517.011 587.387 527.838 623.154 538.623 656.647H538.96H588.209C588.462 626.609 588.673 589.24 588.799 550.102H508.753L508.585 550.271Z" fill="black"/>
<path d="M539.213 713.647C512.545 716.933 494.682 703.578 490.596 719.882L491.228 723.758H587.535C587.535 723.758 587.535 716.048 587.746 702.693H586.65C569.714 701.598 554.506 711.751 539.213 713.647Z" fill="black"/>
<path d="M506.015 201.062C512.208 202.915 534.241 161.839 536.895 150.928C536.895 126.366 533.188 104.838 531.124 80.2349V79.8557C532.842 80.5206 534.718 80.6634 536.516 80.2662C538.315 79.869 539.957 78.9494 541.235 77.6229C545.448 72.2725 538.749 53.4407 528.933 61.9508H528.722C528.722 60.4341 528.469 59.8864 528.217 58.2434V57.4008H527.838C527.838 57.4008 511.365 55.4207 499.527 55.4207C488.447 55.4207 471.89 57.4008 471.89 57.4008C471.442 57.4445 470.99 57.4445 470.542 57.4008V57.78C469.62 62.2282 469.168 66.7609 469.194 71.3035C469.194 86.3858 486.045 118.741 491.986 121.1C492.717 121.399 493.48 121.612 494.261 121.732C492.616 132.814 489.66 143.661 485.456 154.045C486.087 160.87 498.642 198.787 506.015 201.062Z" fill="black"/>
<path d="M499.737 39.2C507.194 39.2 519.074 40.2111 524.761 40.7166V40.4638C523.646 36.8342 521.764 33.4866 519.243 30.6477C504.75 14.428 487.182 22.0112 477.113 40.0426V40.5481C483.348 40.0004 493.544 39.2 499.737 39.2Z" fill="black"/>
<path d="M492.786 268.93C492.731 269.239 492.744 269.556 492.824 269.859C492.904 270.162 493.05 270.444 493.251 270.685C493.451 270.926 493.702 271.12 493.986 271.254C494.27 271.387 494.579 271.457 494.893 271.458H519.286C519.599 271.457 519.909 271.387 520.192 271.254C520.476 271.12 520.727 270.926 520.928 270.685C521.129 270.444 521.274 270.162 521.354 269.859C521.435 269.556 521.447 269.239 521.392 268.93C520.786 265.578 519.022 262.545 516.408 260.361C513.794 258.177 510.496 256.981 507.089 256.981C503.683 256.981 500.384 258.177 497.77 260.361C495.156 262.545 493.392 265.578 492.786 268.93V268.93Z" fill="black"/>
<path d="M459.336 157.246C456.635 157.968 454.032 159.015 451.584 160.364C437.555 168.368 393.445 205.779 393.445 205.779C380.373 187.793 369.085 168.576 359.742 148.399C359.742 148.399 359.742 148.399 359.742 148.399L358.647 148.905L338.93 151.685C340.826 158.131 343.143 166.262 346.05 175.193C356.877 209.739 373.055 255.239 382.787 254.649C400.481 253.259 441.768 230.046 443.242 229.371C443.642 229.151 444.023 228.898 444.38 228.613C448.845 225.327 464.223 210.076 460.473 158.299L459.336 157.246Z" fill="black"/>
<path d="M406.59 618.772C390.412 617.676 375.751 627.83 361.174 629.725C335.433 633.011 318.582 619.657 314.369 635.961V637.604L407.053 637.182C407.053 637.182 406.758 630.02 406.379 618.772H406.59Z" fill="black"/>
<path d="M344.112 437.658C336.318 459.481 351.948 525.793 362.733 566.153H405.494C405.157 530.343 405.873 492.721 410.128 484.338C407.095 482.189 378.152 461.798 344.575 436.479C344.407 436.858 344.238 437.279 344.112 437.658Z" fill="black"/>
<path d="M334.548 137.318L353.928 135.338C357.298 120.508 358.646 88.9958 353.675 84.7829C351.948 83.2241 349.462 82.8028 348.788 85.4148C348.072 82.6343 346.934 80.8648 345.08 80.8648C342.258 80.8648 340.867 82.4658 340.53 85.5833C340.359 85.1067 340.08 84.6762 339.714 84.3254C339.349 83.9746 338.907 83.713 338.424 83.5611C333.453 82.5079 334.759 93.0402 334.801 95.6101C334.801 103.109 335.433 109.386 334.801 117.77C334.801 116.296 334.422 114.821 334.211 113.557C334.014 111.597 333.517 109.679 332.737 107.87C332.147 106.69 330.714 105.089 329.071 105.89C326.544 107.111 326.838 110.777 326.923 112.799C327.007 118.739 329.577 137.908 334.548 137.318Z" fill="black"/>
<path d="M310.956 136.475C299.033 132.262 292.798 134.664 291.618 135.211C289.807 139.761 287.827 144.353 285.678 148.903C276.28 168.878 264.995 187.909 251.975 205.736C251.975 205.736 211.404 175.571 197.207 167.819C184.568 160.952 163.925 161.795 163.925 161.795C163.656 159.851 162.912 158.003 161.758 156.416C160.604 154.828 159.077 153.55 157.31 152.695L156.383 152.442C142.296 149.717 127.798 149.917 113.791 153.032L113.201 153.327C110.493 155.469 108.628 158.497 107.935 161.879C107.935 161.879 73.473 166.977 63.4041 175.276C54.4727 182.607 18.0309 230.044 11.7536 243.02C6.78239 253.342 1.34772 262.442 2.06392 273.985C3.58057 297.114 31.0489 318.221 60.4972 329.596V330.059C59.4019 353.989 57.8852 372.188 57.0426 388.113H61.5926L218.988 387.861H222.4C221.894 361.951 210.351 279.167 202.768 229.286C204.074 229.918 245.529 253.131 263.223 254.564C272.155 255.238 286.647 216.647 297.432 183.239C305.437 158.382 311.377 136.644 311.377 136.644H311.04L310.956 136.475ZM171.592 267.076H152.128L149.516 284.981H150.317C150.761 285.038 151.19 285.183 151.577 285.407C151.965 285.631 152.304 285.931 152.575 286.288C152.846 286.645 153.042 287.052 153.154 287.486C153.265 287.92 153.289 288.371 153.224 288.815L152.381 304.234L152.002 310.89C152.632 310.851 153.264 310.938 153.859 311.146C154.455 311.355 155.003 311.681 155.471 312.105C155.938 312.53 156.316 313.043 156.581 313.616C156.846 314.189 156.994 314.809 157.015 315.44C156.786 316.852 156.233 318.191 155.4 319.353C154.566 320.515 153.476 321.468 152.213 322.139C152.77 322.056 153.338 322.086 153.883 322.226C154.429 322.367 154.941 322.615 155.388 322.957C155.836 323.299 156.211 323.727 156.49 324.216C156.77 324.705 156.948 325.245 157.015 325.804C156.769 327.091 156.215 328.3 155.401 329.327C154.587 330.354 153.536 331.169 152.339 331.702C152.861 331.532 153.415 331.486 153.957 331.566C154.5 331.647 155.016 331.853 155.466 332.168C155.915 332.482 156.285 332.897 156.547 333.379C156.809 333.861 156.955 334.398 156.973 334.946C156.973 336.926 154.108 339.496 148.969 341.266L150.148 341.729L149.643 351.124C149.668 351.943 149.383 352.742 148.844 353.359C148.304 353.977 147.551 354.367 146.736 354.452H126.472C125.656 354.367 124.903 353.977 124.364 353.359C123.825 352.742 123.539 351.943 123.565 351.124L123.101 342.698V342.235C118.187 341.246 113.366 339.836 108.693 338.022H107.471C111.684 334.988 110.378 316.325 110.378 316.325C109.915 314.261 114.886 309.037 120.742 308.615H121.121L120.868 303.391L120.574 296.651C118.514 296.524 116.534 295.807 114.872 294.585C113.209 293.363 111.933 291.688 111.197 289.76C110.461 287.832 110.296 285.733 110.721 283.714C111.147 281.695 112.144 279.841 113.595 278.374C115.046 276.907 116.889 275.888 118.904 275.441C120.918 274.993 123.019 275.135 124.954 275.85C126.89 276.565 128.579 277.822 129.819 279.471C131.06 281.12 131.799 283.091 131.948 285.149H143.703L147.199 261.641H172.013L171.592 267.076Z" fill="black"/>
<path d="M261.412 697.133C243.086 694.984 219.578 683.778 213.89 683.357H212.668C210.014 684.073 179.428 683.357 179.428 683.357C179.428 683.357 179.428 682.725 179.428 682.303V714.827L276.705 714.406C278.601 703.073 270.259 698.144 261.412 697.133Z" fill="black"/>
<path d="M76.633 696.291C68.8391 696.67 68.2072 686.306 52.8721 678.554L52.1559 678.175L23.6766 666.842H23.171L9.85815 694.1L51.2291 713.606L102.248 714.069V712.763C100.984 705.686 90.1144 695.659 76.633 696.291Z" fill="black"/>
<path d="M361.343 724.179C386.285 724.179 406.505 704.751 406.505 680.786C406.505 656.82 386.285 637.393 361.343 637.393C336.4 637.393 316.18 656.82 316.18 680.786C316.18 704.751 336.4 724.179 361.343 724.179Z" stroke="black" stroke-width="2.6488" stroke-miterlimit="10" stroke-linecap="round"/>
<path d="M315.337 680.703C315.337 680.703 360.247 698.86 405.704 680.703" stroke="black" stroke-width="2.6488" stroke-miterlimit="10"/>
<path d="M361.722 637.309V724.137" stroke="black" stroke-width="2.6488" stroke-miterlimit="10"/>
<path d="M393.445 650.581C375.456 655.721 369.81 667.432 371.327 688.202" stroke="black" stroke-width="2.6488" stroke-miterlimit="10"/>
<path d="M392.434 711.414C378.237 710.234 372.086 702.23 371.37 688.201" stroke="black" stroke-width="2.6488" stroke-miterlimit="10"/>
<path d="M328.061 650.581C346.092 655.721 351.695 667.432 350.221 688.202" stroke="black" stroke-width="2.6488" stroke-miterlimit="10"/>
<path d="M329.114 711.414C343.311 710.234 349.462 702.23 350.178 688.201" stroke="black" stroke-width="2.6488" stroke-miterlimit="10"/>
<path d="M179.387 722.873H276.916V714.868H179.387V722.873Z" stroke="black" stroke-width="2.6488" stroke-linecap="round" stroke-linejoin="round"/>
<path d="M490.638 422.07C493.671 515.976 522.277 607.776 547.849 685.167C547.849 685.167 523.288 696.121 504.919 698.312C496.114 699.323 487.731 704.252 489.795 715.5L491.143 723.926H587.451C587.451 723.926 589.81 509.067 588.083 386.892" stroke="black" stroke-width="2.6488" stroke-miterlimit="10"/>
<path d="M425.337 386.936C400.396 397.341 349.504 422.577 344.112 437.491C332.652 469.635 371.917 598.424 371.917 598.424C364.376 600.447 346.934 609.294 328.566 611.442C319.719 612.496 311.377 617.383 313.441 628.673L314.621 637.436L407.305 637.015C407.305 637.015 401.155 491.29 411.097 482.822C429.887 466.77 463.127 456.786 492.112 457.544" stroke="black" stroke-width="2.6488" stroke-miterlimit="10"/>
<path d="M60.2875 330.06C59.1921 353.99 57.6755 372.19 56.8329 388.114L222.232 387.819C221.685 357.234 205.676 247.445 198.977 205.99" stroke="black" stroke-width="2.6488" stroke-linecap="round" stroke-linejoin="round"/>
<path d="M52.9142 678.511C63.9942 669.453 148.506 522.085 166.874 422.281" stroke="black" stroke-width="2.6488" stroke-miterlimit="10" stroke-linecap="round"/>
<path d="M61.5929 388.367C56.5373 484.675 23.6765 666.42 23.6765 666.42" stroke="black" stroke-width="2.6488" stroke-miterlimit="10" stroke-linecap="round"/>
<path d="M145.852 494.45C153.772 537.422 177.027 669.244 179.26 683.315C179.26 683.315 212.29 683.989 212.669 683.315C218.23 671.182 222.064 542.477 218.651 389.379" stroke="black" stroke-width="2.6488" stroke-miterlimit="10" stroke-linecap="round"/>
<path d="M90.1146 411.58C85.9016 434.287 63.3625 441.07 42.677 437.573" stroke="black" stroke-width="2.6488" stroke-miterlimit="10" stroke-linecap="round"/>
<path d="M213.89 683.272C219.578 683.694 243.086 694.9 261.412 697.049C270.259 698.06 278.601 702.989 276.578 714.279L179.302 714.701" stroke="black" stroke-width="2.6488" stroke-linecap="round" stroke-linejoin="round"/>
<path d="M179.26 682.26V714.068" stroke="black" stroke-width="2.6488" stroke-miterlimit="10"/>
<path d="M5.18237 702.483L49.2075 722.284L102.122 721.863V713.858L51.0611 713.395L9.6902 693.889L5.18237 702.483Z" stroke="black" stroke-width="2.6488" stroke-linecap="round" stroke-linejoin="round"/>
<path d="M102.079 712.763C100.984 705.559 90.1144 695.532 76.8016 696.164C68.8813 696.543 68.3757 685.842 52.3245 678.048L23.171 666.505L9.85815 693.762" stroke="black" stroke-width="2.6488" stroke-linecap="round" stroke-linejoin="round"/>
<path d="M116.74 61.7803C118.046 52.2169 119.774 38.0615 126.43 30.6467C147.747 6.80156 172.519 55.3766 176.48 71.0066C180.229 85.5833 159.628 118.444 153.73 120.803C144.798 124.342 132.118 115.958 128.115 107.659" stroke="black" stroke-width="2.6488" stroke-miterlimit="10" stroke-linecap="round"/>
<path d="M113.707 152.738C113.707 127.755 112.358 105.132 114.465 80.2335" stroke="black" stroke-width="2.6488" stroke-miterlimit="10"/>
<path d="M151.286 120.383C152.508 131.126 153.898 143.639 158.069 152.697" stroke="black" stroke-width="2.6488" stroke-miterlimit="10"/>
<path d="M120.152 66.1628C108.398 48.8055 99.6776 71.6396 104.228 77.6219C107.135 81.4557 113.37 80.7395 116.866 78.9279" stroke="black" stroke-width="2.6488" stroke-miterlimit="10" stroke-linecap="round"/>
<path d="M162.071 41.5166C163.503 41.5166 197.291 34.7759 192.53 25.5074C187.138 14.8909 121.964 48.3836 117.961 50.1531" stroke="black" stroke-width="2.6488" stroke-miterlimit="10"/>
<path d="M143.028 68.1843C141.3 67.6577 139.472 67.5474 137.692 67.8622C135.913 68.1771 134.234 68.9082 132.791 69.9958" stroke="black" stroke-width="2.6488" stroke-miterlimit="10" stroke-linecap="round"/>
<path d="M114.676 69.5756C112.871 71.3417 110.46 72.3514 107.935 72.3983" stroke="black" stroke-width="2.6488" stroke-miterlimit="10" stroke-linecap="round"/>
<path d="M139.784 79.3061C140.762 79.3061 141.554 78.514 141.554 77.5367C141.554 76.5595 140.762 75.7673 139.784 75.7673C138.807 75.7673 138.015 76.5595 138.015 77.5367C138.015 78.514 138.807 79.3061 139.784 79.3061Z" fill="black"/>
<path d="M162.955 78.7178C163.933 78.7178 164.725 77.9256 164.725 76.9484C164.725 75.9712 163.933 75.1789 162.955 75.1789C161.978 75.1789 161.186 75.9712 161.186 76.9484C161.186 77.9256 161.978 78.7178 162.955 78.7178Z" fill="black"/>
<path d="M165.905 68.6473C163.125 67.3834 156.806 67.7625 155.668 70.5009C153.899 74.7139 156.595 84.0666 157.732 89.3327C158.491 92.9137 159.797 99.9072 153.519 98.0114" stroke="black" stroke-width="2.6488" stroke-miterlimit="10" stroke-linecap="round"/>
<path d="M291.661 135.254C281.315 160.23 268.065 183.901 252.185 205.779C252.185 205.779 211.615 175.614 197.417 167.863C184.779 160.995 164.135 161.838 164.135 161.838C163.819 159.721 162.936 157.73 161.578 156.076C160.22 154.421 158.44 153.166 156.426 152.443C142.27 148.567 116.403 151.348 113.201 153.328C110.493 155.47 108.628 158.498 107.935 161.88C107.935 161.88 73.473 166.978 63.4041 175.277C54.4727 182.608 18.073 230.045 11.7536 243.021C6.78239 253.343 1.34772 262.443 2.06392 273.986C4.38103 309.754 68.8388 340.719 106.713 338.233C111.937 337.896 110.673 316.158 110.673 316.158C96.939 312.829 40.8228 286.667 48.7431 273.396C63.661 253.266 80.601 234.717 99.2983 218.039" stroke="black" stroke-width="2.6488" stroke-linejoin="round"/>
<path d="M311.125 117.517C310.704 109.092 310.662 103.025 310.83 95.5259C310.83 92.956 312.178 82.4237 307.207 83.4769C302.236 84.5302 303.584 107.617 303.668 111.198" stroke="black" stroke-width="2.6488" stroke-linecap="round" stroke-linejoin="round"/>
<path d="M305.016 85.4585C304.553 82.341 303.289 80.6979 300.466 80.7401C294.231 80.7401 295.748 101.805 295.622 111.41" stroke="black" stroke-width="2.6488" stroke-linecap="round" stroke-linejoin="round"/>
<path d="M311.124 136.518C316.095 137.108 318.918 117.56 319.171 111.536C319.171 109.556 319.508 105.89 317.022 104.669C315.337 103.868 313.905 105.427 313.315 106.607C312.54 108.417 312.042 110.335 311.84 112.294C311.503 114.822 311.04 117.855 310.745 120.383" stroke="black" stroke-width="2.6488" stroke-linecap="round" stroke-linejoin="round"/>
<path d="M296.59 85.2473C296.126 82.6353 293.43 83.0566 291.703 84.6153C286.731 89.081 288.08 120.509 291.45 135.17C291.45 135.17 297.685 131.589 310.956 136.308" stroke="black" stroke-width="2.6488" stroke-linecap="round" stroke-linejoin="round"/>
<path d="M202.684 229.245C203.99 229.877 245.445 253.048 263.139 254.523C278.769 255.786 311.293 136.561 311.293 136.561" stroke="black" stroke-width="2.6488" stroke-miterlimit="10"/>
<path d="M144.335 285.15H122.934C122.487 285.202 122.055 285.343 121.665 285.566C121.274 285.788 120.932 286.088 120.661 286.446C120.389 286.804 120.193 287.214 120.084 287.65C119.975 288.086 119.955 288.54 120.027 288.984L121.333 313.714" stroke="black" stroke-width="2.6488" stroke-miterlimit="10"/>
<path d="M151.96 312.029L153.224 288.984C153.289 288.541 153.265 288.089 153.154 287.655C153.042 287.221 152.845 286.814 152.575 286.457C152.304 286.1 151.965 285.801 151.577 285.576C151.19 285.352 150.761 285.207 150.317 285.15H148.674" stroke="black" stroke-width="2.6488" stroke-miterlimit="10"/>
<path d="M123.102 342.741L123.565 351.167C123.54 351.987 123.825 352.785 124.365 353.403C124.904 354.02 125.657 354.411 126.472 354.495H146.905C147.724 354.42 148.483 354.033 149.025 353.413C149.566 352.793 149.848 351.989 149.812 351.167L150.318 342.025" stroke="black" stroke-width="2.6488" stroke-miterlimit="10"/>
<path d="M121.29 313.209C123.691 319.992 136.119 318.854 141.512 317.928C143.492 317.59 152.971 313.715 152.002 311.103" stroke="black" stroke-width="2.6488" stroke-miterlimit="10"/>
<path d="M152.129 311.061C152.759 311.021 153.391 311.108 153.986 311.317C154.582 311.525 155.13 311.851 155.598 312.276C156.065 312.7 156.443 313.214 156.708 313.787C156.973 314.359 157.121 314.98 157.142 315.611C156.805 322.014 145.093 327.786 132.328 325.806" stroke="black" stroke-width="2.6488" stroke-miterlimit="10" stroke-linecap="round"/>
<path d="M152.339 322.308C152.896 322.225 153.464 322.255 154.01 322.396C154.555 322.536 155.067 322.785 155.515 323.126C155.962 323.468 156.337 323.896 156.617 324.385C156.896 324.874 157.075 325.414 157.142 325.974C156.805 331.577 145.514 336.759 132.749 335.031" stroke="black" stroke-width="2.6488" stroke-miterlimit="10" stroke-linecap="round"/>
<path d="M152.508 331.955C153.029 331.785 153.583 331.739 154.126 331.819C154.669 331.9 155.185 332.106 155.635 332.421C156.084 332.735 156.454 333.15 156.716 333.632C156.977 334.115 157.123 334.651 157.142 335.199C157.142 340.381 137.973 349.439 108.778 338.022" stroke="black" stroke-width="2.6488" stroke-miterlimit="10" stroke-linecap="round"/>
<path d="M110.337 316.327C109.536 314.346 114.55 308.87 120.659 308.406" stroke="black" stroke-width="2.6488" stroke-miterlimit="10" stroke-linecap="round"/>
<path d="M535.042 317.127C535.969 315.189 530.197 309.671 523.372 309.249" stroke="black" stroke-width="2.6488" stroke-miterlimit="10" stroke-linecap="round"/>
<path d="M121.038 303.14C130.854 299.222 132.413 310.766 145.431 309.586C146.913 309.338 148.314 308.738 149.516 307.836C150.718 306.935 151.687 305.758 152.34 304.404" stroke="black" stroke-width="2.6488" stroke-miterlimit="10" stroke-linecap="round"/>
<path d="M145.977 309.164L152.128 267.245L171.592 267.161L172.013 261.642H147.199L140.206 308.658" stroke="black" stroke-width="2.6488" stroke-linecap="round" stroke-linejoin="round"/>
<path d="M586.903 329.933C588.504 356.096 589.978 380.109 590.4 387.482L425 387.187C425.59 356.601 437.892 270.025 444.632 228.57" stroke="black" stroke-width="2.6488" stroke-linecap="round" stroke-linejoin="round"/>
<path d="M582.353 251.953C582.732 259.747 583.617 273.818 584.67 291.513" stroke="black" stroke-width="2.6488" stroke-linecap="round" stroke-linejoin="round"/>
<path d="M524.678 40.4638C523.563 36.8342 521.681 33.4866 519.16 30.6477C504.667 14.428 487.099 22.0112 477.03 40.0426" stroke="black" stroke-width="2.6488" stroke-miterlimit="10" stroke-linecap="round"/>
<path d="M528.849 61.7814C528.849 60.2648 528.596 59.7171 528.343 58.0741" stroke="black" stroke-width="2.6488" stroke-miterlimit="10" stroke-linecap="round"/>
<path d="M536.895 151.811C536.895 126.829 533.23 105.132 531.123 80.1917" stroke="black" stroke-width="2.6488" stroke-miterlimit="10"/>
<path d="M525.857 65.6144C537.738 46.8247 546.458 71.5125 541.908 77.9583C540.32 79.6649 538.176 80.7505 535.86 81.0207C533.545 81.2909 531.208 80.728 529.27 79.4328" stroke="white" stroke-width="1.9096" stroke-miterlimit="10" stroke-linecap="round"/>
<path d="M502.56 68.1843C504.288 67.6577 506.116 67.5474 507.896 67.8622C509.675 68.1771 511.354 68.9082 512.797 69.9958" stroke="white" stroke-width="1.9096" stroke-miterlimit="10" stroke-linecap="round"/>
<path d="M530.912 69.5756C532.717 71.3417 535.128 72.3514 537.653 72.3983" stroke="white" stroke-width="1.9096" stroke-miterlimit="10" stroke-linecap="round"/>
<path d="M505.804 79.3061C506.781 79.3061 507.573 78.514 507.573 77.5367C507.573 76.5595 506.781 75.7673 505.804 75.7673C504.827 75.7673 504.034 76.5595 504.034 77.5367C504.034 78.514 504.827 79.3061 505.804 79.3061Z" fill="white"/>
<path d="M483.897 78.7178C484.874 78.7178 485.667 77.9256 485.667 76.9484C485.667 75.9712 484.874 75.1789 483.897 75.1789C482.92 75.1789 482.128 75.9712 482.128 76.9484C482.128 77.9256 482.92 78.7178 483.897 78.7178Z" fill="white"/>
<path d="M480.948 68.6473C483.728 67.3834 490.006 67.7625 491.143 70.5009C492.955 74.7139 486.046 88.448 484.866 93.7142C484.108 97.2952 490.048 96.8739 493.671 96.4526" stroke="white" stroke-width="1.9096" stroke-miterlimit="10" stroke-linecap="round"/>
<path d="M507.362 101.129C504.202 111.704 490.51 111.83 487.814 104.794" stroke="white" stroke-width="1.9096" stroke-miterlimit="10" stroke-linecap="round"/>
<path d="M334.591 113.896C334.591 104.922 334.591 102.773 334.296 95.1059C334.296 92.4517 332.906 81.7088 338.13 82.762C343.986 83.9416 342.343 107.45 342.006 111.115" stroke="white" stroke-width="1.9096" stroke-linecap="round" stroke-linejoin="round"/>
<path d="M340.32 84.1934C340.314 83.5869 340.439 82.9862 340.687 82.4324C340.934 81.8786 341.299 81.3848 341.755 80.9848C342.211 80.5848 342.748 80.288 343.329 80.1146C343.91 79.9413 344.522 79.8955 345.123 79.9805C352.032 79.9805 350.557 100.497 350.305 110.651" stroke="white" stroke-width="1.9096" stroke-linecap="round" stroke-linejoin="round"/>
<path d="M460.136 158.174C464.349 218.503 442.905 229.246 442.905 229.246C441.599 229.878 400.144 253.049 382.45 254.523C366.82 255.787 334.591 137.404 334.591 137.404" stroke="black" stroke-width="2.6488" stroke-linecap="round" stroke-linejoin="round"/>
<path d="M409.792 484.211C409.792 484.211 379.964 463.146 344.281 436.225" stroke="black" stroke-width="2.6488" stroke-miterlimit="10"/>
<path d="M589.346 550.018C589.346 550.018 553.157 550.018 508.795 549.049" stroke="black" stroke-width="2.6488" stroke-miterlimit="10"/>
<path d="M121.206 296.695C119.081 296.695 117.004 296.065 115.238 294.884C113.471 293.704 112.094 292.026 111.281 290.063C110.468 288.1 110.255 285.94 110.67 283.856C111.084 281.772 112.107 279.858 113.61 278.355C115.112 276.853 117.026 275.83 119.11 275.415C121.194 275.001 123.354 275.213 125.317 276.027C127.28 276.84 128.958 278.217 130.139 279.983C131.319 281.75 131.949 283.827 131.949 285.952" stroke="black" stroke-width="2.6488" stroke-linejoin="round"/>
<path d="M535 317.506C548.734 314.177 604.977 286.751 597.057 273.396C590.19 263.075 552.063 220.398 565.207 159.647" stroke="black" stroke-width="2.6488" stroke-linecap="round" stroke-linejoin="round"/>
<path d="M353.633 134.58C364.087 159.773 377.433 183.666 393.403 205.778C393.403 205.778 437.555 168.367 451.542 160.363C462.327 154.212 485.709 153.496 485.709 153.496C487.015 159.942 498.6 198.827 506.015 201.06C512.25 202.913 534.284 161.795 536.896 150.926C536.896 150.926 568.24 157.119 578.351 165.418C587.24 172.707 627.726 230.045 634.046 243.021C639.017 253.342 644.452 262.442 643.735 273.986C641.418 309.753 576.581 340.803 538.707 338.317" stroke="black" stroke-width="2.6488" stroke-linecap="round" stroke-linejoin="round"/>
<path d="M358.436 148.693L338.719 151.474" stroke="black" stroke-width="2.6488" stroke-linecap="round" stroke-linejoin="round"/>
<path d="M538.96 656.52H586.903" stroke="black" stroke-width="2.6488" stroke-linecap="round" stroke-linejoin="round"/>
<path d="M362.733 566.154H404.609" stroke="black" stroke-width="2.6488" stroke-linecap="round" stroke-linejoin="round"/>
<path d="M490.596 719.883C494.809 703.579 512.545 716.934 539.213 713.648C554.422 711.794 569.714 701.599 586.566 702.736" stroke="black" stroke-width="2.6488" stroke-miterlimit="10"/>
<path d="M314.369 635.918C318.245 619.656 335.433 633.011 361.006 629.725C375.582 627.83 390.243 617.676 406.421 618.772" stroke="black" stroke-width="2.6488" stroke-miterlimit="10"/>
<path d="M522.234 343.289V347.249C522.234 349.484 521.346 351.627 519.766 353.207C518.186 354.787 516.043 355.675 513.808 355.675H500.327C498.092 355.675 495.949 354.787 494.369 353.207C492.789 351.627 491.901 349.484 491.901 347.249V341.225" stroke="black" stroke-width="2.6488" stroke-miterlimit="10" stroke-linecap="round"/>
<path d="M491.943 312.533V280.094C491.943 277.859 492.831 275.716 494.411 274.136C495.991 272.556 498.134 271.668 500.369 271.668H513.85C516.085 271.668 518.228 272.556 519.808 274.136C521.388 275.716 522.276 277.859 522.276 280.094V313.797" stroke="black" stroke-width="2.6488" stroke-miterlimit="10" stroke-linecap="round"/>
<path d="M519.286 271.458C519.599 271.457 519.909 271.387 520.192 271.254C520.476 271.12 520.727 270.926 520.928 270.685C521.129 270.444 521.274 270.162 521.354 269.859C521.435 269.556 521.447 269.239 521.392 268.93C520.786 265.578 519.022 262.545 516.408 260.361C513.794 258.177 510.496 256.981 507.089 256.981C503.683 256.981 500.384 258.177 497.77 260.361C495.156 262.545 493.392 265.578 492.786 268.93C492.731 269.239 492.744 269.556 492.824 269.859C492.904 270.162 493.05 270.444 493.251 270.685C493.451 270.926 493.702 271.12 493.986 271.254C494.27 271.387 494.579 271.457 494.893 271.458H519.286Z" stroke="black" stroke-width="2.6488" stroke-miterlimit="10" stroke-linecap="round"/>
<path d="M334.759 120.973C334.795 118.16 334.683 115.348 334.422 112.547C334.173 110.505 333.605 108.515 332.737 106.649C332.105 105.427 330.504 103.784 328.524 104.627C325.702 105.933 325.954 109.725 326.039 111.831C326.039 116.676 326.039 130.663 332.147 138.794" stroke="white" stroke-width="1.9096" stroke-linecap="round" stroke-linejoin="round"/>
<path d="M355.782 134.075C359.279 119.162 359.447 88.1967 354.223 83.5203C352.412 81.9615 349.083 81.793 349.378 84.1944" stroke="white" stroke-width="1.9096" stroke-linecap="square" stroke-linejoin="round"/>
<path d="M490.721 323.404C490.167 323.18 489.563 323.106 488.971 323.193C488.379 323.279 487.821 323.521 487.353 323.894C486.886 324.267 486.526 324.758 486.311 325.316C486.096 325.874 486.033 326.479 486.129 327.069C486.509 333.01 498.094 338.107 511.407 336.422" stroke="white" stroke-width="1.9096" stroke-miterlimit="10" stroke-linecap="round"/>
<path d="M491.312 333.598C487.099 331.534 485.877 334.483 486.298 336.168C487.773 341.687 501.928 351.335 536.601 340.381C536.601 340.381 540.814 341.266 541.699 341.308" stroke="white" stroke-width="1.9096" stroke-miterlimit="10" stroke-linecap="square"/>
<path d="M521.223 314.304C518.19 319.739 508.921 319.107 502.56 318.18C498.736 316.892 495.149 314.985 491.943 312.534C491.511 312.256 491.022 312.077 490.511 312.011C490.001 311.946 489.483 311.995 488.994 312.155C488.083 312.41 487.284 312.964 486.726 313.729C486.168 314.493 485.884 315.423 485.919 316.368C486.256 322.814 498.557 329.428 511.786 327.406" stroke="white" stroke-width="1.9096" stroke-miterlimit="10" stroke-linecap="round"/>
<path d="M469.91 57.9896C468.989 62.4378 468.537 66.9705 468.562 71.5131C468.562 86.5111 485.414 118.824 491.396 121.184C500.328 124.722 513.009 116.339 517.053 108.039" stroke="white" stroke-width="1.9096" stroke-miterlimit="10" stroke-linecap="round"/>
<path d="M494.05 121.521C491.522 130.916 485.624 149.748 485.624 152.023" stroke="white" stroke-width="2.6488" stroke-miterlimit="10"/>
<path d="M527.88 57.2726C527.88 57.2726 511.407 55.2926 499.569 55.2926C488.489 55.2926 471.932 57.2726 471.932 57.2726C471.151 57.2842 470.375 57.138 469.652 56.8431C468.928 56.5481 468.272 56.1103 467.721 55.5558C467.17 55.0013 466.737 54.3415 466.448 53.6159C466.158 52.8902 466.017 52.1136 466.034 51.3324V46.6982C466.034 45.1563 466.647 43.6775 467.737 42.5872C468.827 41.4969 470.306 40.8844 471.848 40.8844C471.848 40.8844 490.385 39.0728 499.569 39.0728C509.596 39.0728 527.796 40.8844 527.796 40.8844C529.338 40.8844 530.816 41.4969 531.907 42.5872C532.997 43.6775 533.61 45.1563 533.61 46.6982V51.3324C533.626 52.0994 533.491 52.8622 533.212 53.5767C532.932 54.2912 532.514 54.9433 531.982 55.4955C531.449 56.0477 530.812 56.489 530.108 56.794C529.404 57.099 528.647 57.2617 527.88 57.2726Z" stroke="black" stroke-width="2.6488" stroke-linecap="round" stroke-linejoin="round"/>
<path d="M478.673 154.591C478.673 154.591 492.323 208.222 505.551 208.095C520.044 208.095 534.368 176.203 542.836 153.622" stroke="black" stroke-width="2.6488" stroke-miterlimit="10" stroke-linecap="round"/>
<path d="M558.128 156.656C553.862 175.1 553.845 194.271 558.078 212.722C562.311 231.173 570.684 248.42 582.563 263.159" stroke="black" stroke-width="2.6488" stroke-miterlimit="10" stroke-linecap="round"/>
<path d="M466.034 156.109C466.034 156.109 473.364 216.944 443.79 238.177" stroke="black" stroke-width="2.6488" stroke-miterlimit="10" stroke-linecap="round"/>
<path d="M555.263 387.693V549.722" stroke="black" stroke-width="2.6488" stroke-miterlimit="10" stroke-linecap="round"/>
<path d="M565.502 387.693V549.722" stroke="black" stroke-width="2.6488" stroke-miterlimit="10" stroke-linecap="round"/>
<path d="M57.3806 331.829C73.149 337.282 89.8639 339.461 106.503 338.233C111.727 337.896 110.463 316.157 110.463 316.157C96.7293 312.829 40.6131 286.667 48.5334 273.396C63.4512 253.266 80.3913 234.716 99.0885 218.038" stroke="white" stroke-width="2.6488" stroke-linejoin="round"/>
<path d="M148.168 113.432C139.742 113.137 136.246 100.288 138.352 102.015C141.401 103.636 144.787 104.523 148.24 104.603C151.692 104.684 155.116 103.956 158.237 102.478C160.554 101.215 154.993 113.727 148.168 113.432Z" stroke="black" stroke-width="2.6488" stroke-miterlimit="10"/>
<path d="M285.678 147.472L249.658 164.83L264.487 128.261L233.943 112.463L275.314 93.3784L240.01 60.2648L286.816 68.1851L270.806 17.63L310.155 53.1871L324.016 2L337.876 53.1871L367.872 32.8386L361.216 68.1851L413.54 59.5065L372.717 93.3784L402.334 110.483L368.799 120.847L398.374 164.83L361.132 146.798" stroke="black" stroke-width="2.6488" stroke-linecap="round" stroke-linejoin="round"/>
<path d="M345.839 174.013L342.722 182.018L323.047 157.204L297.812 193.645L297.981 182.018" stroke="black" stroke-width="2.6488" stroke-linecap="round" stroke-linejoin="round"/>
<path d="M508.332 249.678H505.425C504.052 249.678 502.939 250.781 502.939 252.142C502.939 253.504 504.052 254.607 505.425 254.607H508.332C509.705 254.607 510.817 253.504 510.817 252.142C510.817 250.781 509.705 249.678 508.332 249.678Z" fill="black"/>
<path d="M504.456 253.258V256.628C504.456 256.838 504.626 257.007 504.836 257.007H509.006C509.216 257.007 509.386 256.838 509.386 256.628V253.258C509.386 253.049 509.216 252.879 509.006 252.879H504.836C504.626 252.879 504.456 253.049 504.456 253.258Z" fill="black"/>
</g>
</svg>
